<svg width="334" height="85" viewBox="0 0 334 85" fill="none" xmlns="http://www.w3.org/2000/svg">
    <path d="M68.1793 80.5093C68.1793 72.5093 70.6393 64.7793 72.5093 57.0393C73.4853 53.092 74.1903 49.0827 74.6193 45.0393C74.8293 42.9693 74.9793 40.8893 75.1693 38.8193C75.2693 37.6993 75.3793 36.5893 75.5193 35.4793C75.5793 35.0593 75.6393 34.6493 75.7093 34.2393C75.7793 33.8293 75.8093 33.6093 75.8693 33.2393C75.9293 32.8693 75.9393 32.8693 75.8093 33.3093L74.6993 33.9593C76.2393 33.3193 77.9893 32.9593 79.5793 32.4893C81.0889 31.9776 82.6526 31.642 84.2393 31.4893C85.5458 31.358 86.8646 31.5503 88.0793 32.0493C88.5779 32.2663 89.0271 32.5828 89.3993 32.9793C89.4884 33.0566 89.56 33.1521 89.6093 33.2593C89.7193 33.4793 89.7393 33.4793 89.6593 33.2593C89.7893 32.8493 89.0893 33.7193 89.2293 33.5593C85.282 37.8834 79.8678 40.5852 74.0393 41.1393C72.6719 41.171 71.571 42.2719 71.5393 43.6393C71.5502 45.0155 72.6631 46.1284 74.0393 46.1393C81.3191 45.4196 88.6357 45.1391 95.9493 45.2993C99.4916 45.4204 103.019 45.8183 106.499 46.4893C108.27 46.8363 110.023 47.2735 111.749 47.7993C113.31 48.1626 114.809 48.7522 116.199 49.5493C117.429 50.3693 117.809 51.8393 118.199 53.1993C118.801 54.8416 119.006 56.6026 118.799 58.3393C118.209 61.3393 115.559 63.4393 112.969 64.7893C106.829 68.0093 99.5093 69.4593 92.6693 70.0993C84.5039 70.7315 76.2956 70.5372 68.1693 69.5193C66.7931 69.5302 65.6801 70.6431 65.6693 72.0193C65.6959 73.3888 66.7997 74.4927 68.1693 74.5193C76.0699 75.5037 84.0477 75.7147 91.9893 75.1493C99.9293 74.4793 108.159 72.8593 115.299 69.2093C118.714 67.6158 121.453 64.8625 123.029 61.4393C124.659 57.5493 123.719 52.9793 122.089 49.2193C120.459 45.4593 116.789 44.1093 113.089 42.9793C109.2 41.826 105.208 41.0524 101.169 40.6693C92.1693 39.7293 83.0593 40.4293 74.0593 41.1393V46.1393C80.3254 45.6094 86.2529 43.07 90.9593 38.8993C92.1079 37.9632 93.118 36.869 93.9593 35.6493C94.9754 33.9477 94.8362 31.7957 93.6093 30.2393C91.6693 27.5593 88.2093 26.4593 85.0193 26.4593C81.8293 26.4593 78.5893 27.6793 75.4393 28.5793C73.6793 29.0793 71.8693 29.4493 71.2093 31.3993C70.7417 33.1987 70.4635 35.042 70.3793 36.8993C69.9993 40.3393 69.8593 43.7993 69.3793 47.2293C68.8671 50.6965 68.1593 54.132 67.2593 57.5193C65.3593 65.0793 63.1893 72.6693 63.1893 80.5193C63.1893 83.7393 68.1893 83.7393 68.1893 80.5193L68.1793 80.5093Z" fill="black"/>
    <path d="M127.629 42.2192L127.789 71.1592C127.789 74.3692 132.789 74.3792 132.789 71.1592L132.629 42.2192C132.629 38.9992 127.629 38.9892 127.629 42.2192Z" fill="black"/>
    <path d="M126.469 29.5392C129.679 29.5392 129.689 24.5392 126.469 24.5392C123.249 24.5392 123.239 29.5392 126.469 29.5392Z" fill="black"/>
    <path d="M139.509 31.0392C152.609 29.7592 165.733 28.8326 178.879 28.2592C182.079 28.1192 182.099 23.1192 178.879 23.2592C165.733 23.8392 152.609 24.7659 139.509 26.0392C138.144 26.0759 137.046 27.174 137.009 28.5392C137.02 29.9154 138.133 31.0284 139.509 31.0392Z" fill="black"/>
    <path d="M151.609 29.6992C150.756 44.0992 150.563 58.5126 151.029 72.9392C151.129 76.1492 156.139 76.1592 156.029 72.9392C155.569 58.5192 155.763 44.1059 156.609 29.6992C156.799 26.4892 151.799 26.4992 151.609 29.6992Z" fill="black"/>
    <path d="M195.109 40.5493C184.029 41.5493 170.479 40.4693 162.509 49.9293C160.593 52.2129 159.224 54.905 158.509 57.7993C157.618 60.7585 157.323 63.865 157.639 66.9393C158.639 73.2393 166.339 74.4993 171.559 75.0593C178.809 75.8293 186.119 74.5893 193.259 73.3993C194.583 73.0206 195.358 71.6489 194.999 70.3192C194.607 69.0105 193.253 68.2432 191.929 68.5793C186.517 69.6342 181.022 70.2032 175.509 70.2793C172.863 70.2736 170.226 69.9649 167.649 69.3593C166.059 68.9693 163.469 68.4693 162.729 66.7493C162.418 65.756 162.36 64.7008 162.559 63.6793C162.68 62.3671 162.888 61.0643 163.179 59.7793C163.608 57.5399 164.546 55.429 165.919 53.6093C168.599 50.2493 172.689 48.3393 176.769 47.3093C182.769 45.8093 188.999 46.0893 195.099 45.5493C196.464 45.5126 197.563 44.4145 197.599 43.0493C197.588 41.6731 196.475 40.5601 195.099 40.5493H195.109Z" fill="black"/>
    <path d="M204.179 24.2393C202.878 42.1577 202.931 60.1488 204.339 78.0592C204.366 79.4288 205.47 80.5326 206.839 80.5592C208.215 80.5484 209.328 79.4354 209.339 78.0592C207.931 60.1488 207.878 42.1577 209.179 24.2393C209.179 22.8585 208.06 21.7393 206.679 21.7393C205.299 21.7393 204.179 22.8585 204.179 24.2393Z" fill="black"/>
    <path d="M218.989 78.3893C218.243 69.0755 218.056 59.7254 218.429 50.3893C218.549 45.8993 218.569 41.3893 218.989 36.8893C219.429 32.2093 220.479 27.7093 219.609 23.0093C219.242 21.6783 217.865 20.897 216.534 21.2643C215.203 21.6316 214.422 23.0083 214.789 24.3393C215.579 28.6293 214.319 33.0893 213.949 37.3393C213.559 41.8293 213.529 46.3393 213.409 50.8593C213.052 60.036 213.246 69.2258 213.989 78.3793C214.026 79.7445 215.124 80.8426 216.489 80.8793C217.865 80.8684 218.978 79.7555 218.989 78.3793V78.3893Z" fill="black"/>
    <path d="M206.929 54.8893C209.84 54.9714 212.752 54.7569 215.619 54.2493C216.944 53.8704 217.722 52.5012 217.369 51.1693C216.973 49.8591 215.616 49.0926 214.289 49.4293C213.779 49.5293 213.289 49.6193 212.759 49.6893L213.429 49.5993C211.271 49.8358 209.1 49.9326 206.929 49.8893C205.553 49.9001 204.44 51.0131 204.429 52.3893C204.456 53.7588 205.56 54.8627 206.929 54.8893Z" fill="black"/>
    <path d="M230.159 76.8093C229.699 58.0093 229.763 39.2026 230.349 20.3893L226.589 22.5493C230.439 24.2793 234.109 22.3593 238.049 22.1693C240.429 22.0493 244.189 21.9993 245.839 24.1693C247.489 26.3393 245.159 30.0293 243.899 31.9193C240.333 37.135 234.646 40.5094 228.359 41.1393C226.979 41.1393 225.859 42.2586 225.859 43.6393C225.859 45.02 226.979 46.1393 228.359 46.1393C236.659 46.9593 246.529 48.7293 251.469 56.2793C253.807 59.7854 254.352 64.1892 252.939 68.1593C251.575 71.8499 248.599 74.7152 244.859 75.9393C242.259 76.6707 239.541 76.8814 236.859 76.5593C235.558 76.473 234.263 76.3161 232.979 76.0893C232.599 76.0279 232.224 75.9342 231.859 75.8093C231.669 75.7293 231.309 75.2993 231.409 75.5893C231.013 74.2791 229.656 73.5126 228.329 73.8493C227.006 74.2234 226.231 75.5921 226.589 76.9193C227.509 79.5393 229.849 80.6593 232.449 81.0393C235.445 81.5666 238.49 81.7611 241.529 81.6193C247.221 81.2713 252.443 78.3438 255.709 73.6693C258.929 68.9152 259.673 62.9049 257.709 57.5093C255.724 52.5977 252.074 48.5409 247.399 46.0493C241.589 42.7693 234.899 41.7693 228.399 41.1193V46.1193C236.002 45.4743 242.961 41.5957 247.509 35.4693C249.849 32.3493 251.969 28.2293 251.249 24.2193C250.529 20.2093 246.769 18.0793 243.149 17.4593C240.781 17.0711 238.368 17.0374 235.989 17.3593C234.639 17.5393 233.329 17.8293 231.989 18.1193C231.074 18.4345 230.086 18.4728 229.149 18.2293C228.371 17.805 227.429 17.8148 226.66 18.2553C225.892 18.6957 225.407 19.5037 225.379 20.3893C224.799 39.1893 224.736 57.996 225.189 76.8093C225.269 80.0193 230.269 80.0293 230.189 76.8093H230.159Z" fill="black"/>
    <path d="M275.459 35.0393C268.749 41.7293 264.639 51.2293 265.729 60.7893C266.729 69.6593 272.259 80.0093 281.849 81.6993C290.669 83.2493 299.399 77.9393 302.919 69.8893C306.589 61.4893 305.589 51.2793 300.989 43.4293C298.456 38.9234 294.448 35.4274 289.639 33.5292C284.712 31.6371 279.203 32.0027 274.569 34.5292C271.769 36.1192 274.289 40.4493 277.089 38.8493C283.529 35.1993 291.529 38.5093 295.529 44.1993C299.867 50.3619 301.237 58.1348 299.269 65.4093C297.389 71.9093 291.769 77.0893 284.769 77.0093C277.089 76.9193 272.359 69.0993 270.989 62.3593C269.229 53.6293 272.829 44.7493 278.989 38.5993C281.269 36.3193 277.729 32.7892 275.449 35.0592L275.459 35.0393Z" fill="black"/>
    <path d="M299.439 18.8693C305.042 26.1274 309.89 33.9377 313.909 42.1793C314.799 43.9993 317.249 43.5893 318.229 42.1793L333.429 20.2692C334.128 19.0763 333.727 17.5429 332.534 16.8443C331.341 16.1456 329.808 16.5463 329.109 17.7392L313.909 39.6493H318.229C314.208 31.409 309.36 23.5989 303.759 16.3393C303.033 15.1865 301.538 14.7932 300.339 15.4393C299.154 16.1459 298.754 17.6718 299.439 18.8693Z" fill="black"/>
    <path d="M312.869 39.9293L312.509 79.8193C312.509 83.0293 317.509 83.0393 317.509 79.8193L317.869 39.9293C317.869 36.7093 312.869 36.7093 312.869 39.9293Z" fill="black"/>
    <path d="M19.5192 31.4193C18.3192 31.5493 17.1192 31.6593 15.9092 31.7193C14.7695 31.8342 13.6223 31.8543 12.4793 31.7793L13.1392 31.8693C12.9915 31.8528 12.8468 31.8158 12.7092 31.7593L13.2993 32.0093C13.2016 31.96 13.108 31.9032 13.0192 31.8393L13.5292 32.2293C13.4776 32.1842 13.4306 32.134 13.3892 32.0793L13.7792 32.5793C13.7404 32.5261 13.7069 32.4691 13.6792 32.4093L13.9393 33.0093C13.9116 32.9486 13.8914 32.8848 13.8792 32.8193L13.9692 33.4793C13.9641 33.3794 13.9641 33.2792 13.9692 33.1793L13.8792 33.8493C13.9039 33.7162 13.9408 33.5857 13.9892 33.4593L13.7392 34.0493L13.8992 33.7893L13.5093 34.2993C13.5818 34.2182 13.6622 34.1445 13.7492 34.0793L13.2392 34.4693L13.5392 34.3093L12.9393 34.5593C13.0851 34.5074 13.2359 34.4706 13.3892 34.4493L12.7192 34.5393C12.9121 34.5193 13.1064 34.5193 13.2993 34.5393L12.6392 34.4493C12.8792 34.4797 13.1144 34.5401 13.3392 34.6293L12.7392 34.3793C12.9468 34.4765 13.1444 34.5937 13.3292 34.7293L12.8192 34.3293C13.0535 34.5136 13.265 34.7251 13.4492 34.9593L13.0592 34.4493C13.2309 34.6944 13.3783 34.9556 13.4992 35.2293L13.2392 34.6293C13.3508 34.9055 13.4281 35.1943 13.4692 35.4893L13.3792 34.8193C13.4141 35.0815 13.4141 35.3471 13.3792 35.6093L13.4692 34.9393C13.44 35.1665 13.3794 35.3887 13.2892 35.5993L13.5392 35.0093C13.4818 35.1445 13.4079 35.2721 13.3192 35.3893L13.7092 34.8893L13.6193 34.9693L14.1292 34.5793L14.0392 34.6393L14.6392 34.3893C14.5688 34.4185 14.4948 34.4387 14.4192 34.4493L15.0792 34.3593H14.9692L15.6292 34.4493C15.5525 34.4331 15.4784 34.4062 15.4092 34.3693L16.0093 34.6293L15.8392 34.5293L16.3492 34.9193C16.2721 34.8606 16.2016 34.7935 16.1392 34.7193L16.5292 35.2293C16.4532 35.1253 16.3863 35.0148 16.3292 34.8993L16.5892 35.4993C16.5376 35.3774 16.5006 35.2499 16.4793 35.1193L16.5692 35.7893C16.5492 35.6232 16.5492 35.4554 16.5692 35.2893L16.4793 35.9593C16.4972 35.8258 16.5308 35.6949 16.5792 35.5693L16.3292 36.1693C16.4023 35.9869 16.4998 35.8153 16.6193 35.6593L16.2192 36.1593C16.3989 35.9429 16.5999 35.7453 16.8192 35.5693L16.3092 35.9593C16.6476 35.706 17.0132 35.4913 17.3993 35.3193L16.7993 35.5693C17.0487 35.4626 17.3108 35.3886 17.5793 35.3493L16.9192 35.4393C17.0488 35.4243 17.1797 35.4243 17.3092 35.4393L16.6492 35.3493C16.8 35.3669 16.9479 35.4039 17.0892 35.4593L16.4892 35.2093C16.6023 35.2572 16.7096 35.3176 16.8092 35.3893L16.3092 34.9993L16.5692 35.2593L16.1792 34.7593C16.2969 34.9092 16.3944 35.074 16.4692 35.2493L16.2192 34.6493C16.2686 34.8034 16.3087 34.9603 16.3392 35.1193L16.2492 34.4493C16.2784 34.6449 16.2784 34.8437 16.2492 35.0393L16.3392 34.3693C16.3185 34.5302 16.2782 34.6881 16.2192 34.8393L16.4692 34.2393C16.3915 34.3984 16.2977 34.5492 16.1893 34.6893L16.5792 34.1893C16.4654 34.3281 16.3381 34.4554 16.1992 34.5693L16.7092 34.1793C16.5069 34.3344 16.285 34.4622 16.0493 34.5593L16.6392 34.3093C16.3983 34.4062 16.1465 34.4734 15.8892 34.5093L16.5592 34.4193C16.2505 34.4593 15.938 34.4593 15.6292 34.4193L16.2993 34.5093C15.9071 34.4466 15.5242 34.3357 15.1592 34.1793L15.7492 34.4293C15.2236 34.1859 14.7272 33.884 14.2692 33.5293L14.7792 33.9193C14.5193 33.7258 14.2812 33.5045 14.0692 33.2593L14.4592 33.7593C14.3655 33.6347 14.285 33.5006 14.2192 33.3593L14.4692 33.9593C14.414 33.8241 14.3738 33.6832 14.3492 33.5393L14.4393 34.2093C14.4393 34.0993 14.4393 33.9993 14.4393 33.8893L14.3492 34.5593C14.3652 34.4567 14.3921 34.3562 14.4292 34.2593L14.1792 34.8493C14.2198 34.7585 14.2738 34.6742 14.3392 34.5993L13.9492 35.0993C13.9909 35.0509 14.0379 35.0073 14.0892 34.9693L13.5892 35.3593C13.6502 35.313 13.7175 35.2759 13.7892 35.2493L13.1992 35.4993C13.2788 35.4674 13.3636 35.4505 13.4492 35.4493L12.7792 35.5293C13.3292 35.5293 13.8893 35.5993 14.4393 35.5293C14.9752 35.4892 15.5133 35.4892 16.0493 35.5293L15.3892 35.4393C15.6247 35.471 15.856 35.528 16.0792 35.6093L15.4793 35.3593C15.6597 35.4363 15.8308 35.5335 15.9892 35.6493L15.4793 35.2593C15.6264 35.3747 15.7576 35.5092 15.8693 35.6593L15.4793 35.1493C15.6342 35.3607 15.765 35.5888 15.8693 35.8293L15.6193 35.2393C15.7842 35.6672 15.895 36.1139 15.9492 36.5693L15.8592 35.8993C15.8991 36.1912 15.8991 36.4873 15.8592 36.7793L15.9492 36.1193C15.9267 36.2593 15.8898 36.3967 15.8392 36.5293L16.0892 35.9293C16.0491 36.0245 15.9989 36.115 15.9393 36.1993L16.3292 35.6993L16.1092 35.9193L16.6193 35.5293C16.5293 35.5793 16.4593 35.6293 16.3693 35.6693L16.9592 35.4193C16.8719 35.4498 16.7813 35.4699 16.6893 35.4793L17.3592 35.3893H17.0692L17.7392 35.4693C17.5749 35.4493 17.4137 35.409 17.2593 35.3493L17.8592 35.5993C17.6672 35.5144 17.4859 35.407 17.3192 35.2793L17.8192 35.6693C17.6837 35.5588 17.5598 35.4348 17.4492 35.2993L17.8392 35.7993C17.7015 35.6159 17.5842 35.4181 17.4892 35.2093L17.7392 35.7993C17.6135 35.4774 17.5263 35.1417 17.4793 34.7993L17.5692 35.4693C17.5242 35.0906 17.5242 34.708 17.5692 34.3293L17.4793 34.9893C17.5471 34.5248 17.6749 34.071 17.8592 33.6393L17.6092 34.2393C17.7559 33.908 17.9369 33.5929 18.1493 33.2993L17.7593 33.8093C17.9007 33.6227 18.0616 33.4518 18.2392 33.2993L17.7392 33.6993C17.891 33.5787 18.0553 33.4748 18.2293 33.3893L17.6292 33.6493C17.7932 33.5829 17.9644 33.5359 18.1392 33.5093L17.4793 33.5993C17.6189 33.5845 17.7596 33.5845 17.8993 33.5993L17.2293 33.5093C17.366 33.5272 17.5002 33.5607 17.6292 33.6093L17.0292 33.3593L17.2993 33.5093L16.7892 33.1193C16.8731 33.1847 16.9502 33.2584 17.0192 33.3393L16.6193 32.8293C16.6852 32.9131 16.7421 33.0036 16.7892 33.0993L16.5392 32.4993C16.5392 32.6093 16.5993 32.6993 16.6193 32.8093L16.5292 32.1393C16.5442 32.2822 16.5442 32.4263 16.5292 32.5693L16.6193 31.8993C16.5932 32.0418 16.5564 32.1823 16.5093 32.3193L16.7593 31.7193C16.704 31.8525 16.6299 31.9771 16.5392 32.0893L16.9292 31.5893C16.8283 31.7084 16.7142 31.8157 16.5892 31.9093L17.0992 31.5193C16.966 31.6077 16.8255 31.6847 16.6792 31.7493L17.2792 31.4993C17.0916 31.5691 16.8972 31.6194 16.6992 31.6493L17.3693 31.5593C17.1299 31.5842 16.8886 31.5842 16.6492 31.5593L17.3192 31.6493C17.0666 31.612 16.8186 31.5483 16.5792 31.4593L17.1692 31.7093C16.9 31.5921 16.645 31.4445 16.4092 31.2693L16.9192 31.6593C16.6884 31.4784 16.4802 31.2702 16.2993 31.0393L16.6893 31.5493C16.5403 31.3411 16.4098 31.1202 16.2993 30.8893L16.5493 31.4793C16.4332 31.2116 16.3557 30.9288 16.3192 30.6393L16.4092 31.3093C16.3893 31.1265 16.3893 30.9421 16.4092 30.7593L16.3192 31.4193C16.3386 31.3132 16.3687 31.2093 16.4092 31.1093L16.1492 31.7093C16.1765 31.643 16.21 31.5793 16.2492 31.5193L15.8592 32.0293C15.8979 31.9724 15.9452 31.9218 15.9992 31.8793L15.4992 32.2693C15.5528 32.2203 15.6135 32.1798 15.6792 32.1493L15.0892 32.4093C15.1931 32.3701 15.3002 32.34 15.4092 32.3193L14.7492 32.4093C15.0816 32.373 15.4169 32.373 15.7492 32.4093L15.0892 32.3193C15.2388 32.3383 15.3862 32.3718 15.5292 32.4193L14.9292 32.1693C15.0313 32.2162 15.1285 32.2731 15.2192 32.3393L14.7092 31.9493L14.8693 32.1093L14.4793 31.6093C14.5385 31.6991 14.5919 31.7927 14.6392 31.8893L14.3892 31.2893C14.4184 31.398 14.4417 31.5081 14.4592 31.6193L14.3693 30.9493C14.3844 31.1023 14.3844 31.2563 14.3693 31.4093L14.4592 30.7493C14.4171 30.9792 14.35 31.2039 14.2593 31.4193L14.5093 30.8193C14.381 31.1038 14.2199 31.3722 14.0292 31.6193L14.4192 31.1193C14.225 31.3636 14.0035 31.585 13.7593 31.7793L14.2692 31.3893C14.0206 31.5775 13.7524 31.7384 13.4692 31.8693L14.0592 31.6193C13.7781 31.7387 13.4821 31.8194 13.1792 31.8593L13.8392 31.7793H13.3092L13.9692 31.8693C13.8025 31.8447 13.6385 31.8045 13.4793 31.7493L14.0792 31.9993C13.944 31.9418 13.8164 31.8679 13.6992 31.7793L14.1992 32.1693C14.0886 32.0771 13.985 31.9768 13.8892 31.8693L14.2892 32.3793C14.2232 32.292 14.1663 32.1982 14.1193 32.0993L14.3693 32.6993C14.3693 32.5893 14.2992 32.4993 14.2692 32.3893L14.3592 33.0593C14.3393 32.9166 14.3393 32.7719 14.3592 32.6293L14.2692 33.2993C14.2853 33.2 14.3121 33.1027 14.3492 33.0093L14.0992 33.5993C14.1702 33.4439 14.2574 33.2964 14.3592 33.1593L13.9692 33.6693C14.1142 33.501 14.2749 33.347 14.4492 33.2093L13.9393 33.5993C14.5073 33.1943 15.1216 32.8586 15.7692 32.5993L15.1692 32.8493C15.4628 32.7292 15.7677 32.6387 16.0792 32.5793L15.4192 32.6693C15.6419 32.6443 15.8666 32.6443 16.0892 32.6693L15.4292 32.5793C15.6139 32.6058 15.795 32.6528 15.9692 32.7193L15.3693 32.4693C15.5045 32.5267 15.6321 32.6006 15.7492 32.6893L15.2492 32.2993L15.4692 32.5193L15.0792 32.0093L15.1692 32.1693L14.9192 31.5693C14.9497 31.6532 14.9699 31.7405 14.9793 31.8293L14.8892 31.1593V31.2493L14.9692 30.5793C14.9798 30.6321 14.9798 30.6865 14.9692 30.7393L15.2192 30.1393V30.1993L15.6092 29.6993L15.5592 29.7493L16.0692 29.3593H15.9992C14.8063 30.0552 14.4034 31.5863 15.0992 32.7793C15.7951 33.9722 17.3263 34.3752 18.5192 33.6793C19.6257 33.0176 20.1696 31.7105 19.8592 30.4593C19.65 29.5781 19.1045 28.8137 18.3392 28.3293C17.124 27.5741 15.6349 27.4017 14.2792 27.8593C11.8392 28.6293 9.07925 30.4493 9.46925 33.3593C9.72823 34.9868 10.9589 36.289 12.5692 36.6393C14.0289 36.9293 15.5435 36.6076 16.7593 35.7493C17.9058 34.9547 18.7707 33.8167 19.2293 32.4993C19.8535 30.8102 19.2269 28.9139 17.7192 27.9293C16.505 27.2938 15.0886 27.1644 13.7792 27.5693C12.7044 27.9183 11.8751 28.7814 11.5692 29.8693C11.3844 30.6282 11.3844 31.4204 11.5692 32.1793C12.1794 34.718 14.4287 36.5231 17.0392 36.5693C18.6445 36.6018 20.1544 35.8091 21.0392 34.4693C21.9345 32.9825 21.7689 31.0881 20.6292 29.7793C19.5543 28.674 17.9397 28.2849 16.4793 28.7793C15.1589 29.2426 14.0786 30.2148 13.4793 31.4793C12.2993 33.8293 12.2192 36.9293 14.1392 38.9393C15.1761 40.0462 16.7137 40.5347 18.1992 40.2293C19.8538 39.7529 20.987 38.2309 20.9692 36.5093C20.9965 35.304 20.7214 34.111 20.1692 33.0393C19.547 31.8182 18.4217 30.9304 17.0892 30.6093C16.0336 30.453 14.9656 30.3961 13.8992 30.4393C13.2316 30.3624 12.5559 30.3962 11.8992 30.5393C10.8209 30.8707 9.9754 31.7125 9.63925 32.7893C8.63925 35.7893 11.7292 38.1493 14.2192 38.9993C16.7092 39.8493 19.6592 38.9993 20.8092 36.6193C21.4592 35.2843 21.4294 33.7186 20.7293 32.4093C20.0011 31.0744 18.5895 30.2568 17.0692 30.2893C14.4392 30.3793 11.3892 32.7393 11.5792 35.5593C11.6082 37.4791 13.0862 39.0652 14.9992 39.2293C16.1583 39.2407 17.23 38.6146 17.7892 37.5993C18.1499 36.9507 18.3617 36.2299 18.4092 35.4893C18.5829 33.2688 17.4564 31.1484 15.5192 30.0493C14.344 29.3776 12.9433 29.2219 11.6492 29.6193C10.7584 29.9171 10.0009 30.5189 9.50925 31.3193C9.03509 32.1385 8.89199 33.108 9.10925 34.0293C9.61648 35.7178 11.2314 36.8249 12.9892 36.6893C14.1092 36.6893 15.2292 36.6893 16.3492 36.5793C17.4692 36.4693 18.4992 36.4193 19.5692 36.2993C20.2278 36.2767 20.8562 36.0175 21.3392 35.5693C21.806 35.0983 22.0683 34.4624 22.0692 33.7993C22.0715 33.1356 21.8088 32.4984 21.3392 32.0293C20.8754 31.552 20.2347 31.2878 19.5692 31.2993L19.5192 31.4193Z" fill="black"/>
    <path d="M42.4992 29.3793C42.3792 29.7593 42.5992 29.1393 42.6092 29.1293C42.4692 29.4493 42.7293 28.9493 42.7893 28.9193C42.8493 28.8893 42.6193 29.0893 42.6193 29.0893C42.6193 29.0893 43.1493 28.7693 42.8193 28.9293C42.7377 28.9591 42.6604 28.9995 42.5893 29.0493C42.5893 29.0493 43.1992 28.8393 42.8292 28.9493C42.6492 28.9993 42.4893 29.0593 42.3093 29.0993C42.2209 29.1053 42.1336 29.1221 42.0492 29.1493C42.5592 28.9593 42.5493 29.0993 42.3193 29.1493C42.1494 29.1593 41.9791 29.1593 41.8093 29.1493C41.7263 29.1598 41.6423 29.1598 41.5593 29.1493C41.5593 29.1493 42.2392 29.2893 41.8292 29.1493C41.7092 29.1493 41.0993 28.9093 41.5393 29.0893C41.9793 29.2693 41.6593 29.1393 41.5393 29.0893C41.4193 29.0393 41.8593 29.3393 41.8093 29.3093C41.5393 29.0793 41.9693 29.5393 41.9793 29.5593C41.7793 29.2593 42.0793 29.8193 42.0893 29.8393C41.9593 29.5193 42.0893 30.0493 42.0893 30.0993C42.0893 30.5893 42.0193 30.5693 42.0893 30.3393C42.0893 30.3893 41.8193 30.8793 42.0293 30.5393C41.9093 30.7293 41.7193 30.8993 42.0293 30.6293C42.1093 30.5493 42.2793 30.2993 42.0293 30.5793C41.7793 30.8593 41.9592 30.6393 42.0992 30.5793L42.3792 30.4193C42.5992 30.2793 42.1693 30.5093 42.1493 30.5093C42.3593 30.5093 42.5592 30.3593 42.7692 30.3093L43.0792 30.2393C43.5992 30.1093 42.6793 30.2393 42.9793 30.2393C43.2793 30.2393 43.4092 30.2393 43.6292 30.2393C43.8492 30.2393 44.0893 30.2993 43.6993 30.2393C43.3093 30.1793 43.6993 30.2393 43.7593 30.2393C43.9455 30.2821 44.1291 30.3355 44.3093 30.3993C44.6893 30.5093 44.1593 30.3393 44.1193 30.3093C44.0793 30.2793 44.3892 30.4393 44.4992 30.4993L44.9293 30.7793C45.1993 30.9493 44.5392 30.4393 44.7692 30.6593L44.9892 30.8493C45.1292 30.9893 45.2492 31.1293 45.3792 31.2793C45.5092 31.4293 45.0893 30.8493 45.2593 31.1193C45.3193 31.2293 45.3893 31.3193 45.4493 31.4293L45.5893 31.6793C45.7393 31.9493 45.4792 31.7293 45.5192 31.4793C45.5192 31.6193 45.6593 31.8893 45.6993 32.0393C45.7393 32.1893 45.7493 32.2693 45.7793 32.3793C45.8593 32.7093 45.7793 31.8993 45.7793 32.2393C45.7793 32.3493 45.7793 32.4693 45.7793 32.5893C45.7793 33.0893 45.6993 32.5893 45.7793 32.5293C45.8593 32.4693 45.7093 32.8093 45.6993 32.8593C45.6393 33.1893 45.5193 32.8593 45.7893 32.6993C45.6625 32.8521 45.5612 33.0243 45.4892 33.2093C45.4892 33.1493 45.8792 32.7793 45.5992 33.0493L45.4392 33.1993C45.2292 33.4293 45.8692 32.9293 45.5992 33.0793C45.5392 33.0793 45.3093 33.1993 45.2793 33.2593C45.4293 32.9993 45.7692 33.1193 45.4692 33.1693C45.0092 33.2393 45.6093 33.1693 45.6493 33.1693C45.5395 33.1596 45.429 33.1596 45.3193 33.1693C44.9593 33.1693 45.4192 33.0093 45.4992 33.2193C45.2927 33.1504 45.0824 33.0937 44.8693 33.0493C44.6193 32.9793 44.7392 32.8793 44.9892 33.1193C44.8968 33.0555 44.7958 33.005 44.6892 32.9693C44.2789 32.7547 43.8845 32.5107 43.5093 32.2393L43.2392 32.0393C43.2392 32.0393 43.7193 32.4593 43.3893 32.1493L42.8893 31.6593C42.6593 31.4293 43.1392 32.0793 42.9992 31.7993C42.9992 31.6993 42.8192 31.4093 42.9992 31.7993C43.1792 32.1893 43.0492 31.9193 42.9992 31.7993C43.1292 32.4093 42.9992 32.2593 43.0492 32.0593C43.0492 32.3193 42.9802 32.5746 42.8492 32.7993C43.0292 32.4693 42.6893 32.9993 42.6693 33.0193C42.8893 32.7393 42.4693 33.1693 42.4493 33.1893C42.7493 32.9493 41.9792 33.3193 42.2392 33.2593C42.3392 33.2593 42.9693 33.1193 42.4793 33.1793C41.9893 33.2393 42.6392 33.1793 42.7392 33.1793H43.1993C43.299 33.1895 43.3995 33.1895 43.4992 33.1793H43.1993L43.4092 33.2293C43.2992 33.2293 43.0192 33.0393 42.9392 32.9693C42.8592 32.8993 42.4993 32.3993 42.6393 32.6493C42.7793 32.8993 42.5293 32.1593 42.5593 32.4793C42.5593 32.9193 42.5593 32.5793 42.5593 32.4793C42.5593 32.0393 42.5593 32.4793 42.5593 32.5693C42.5593 32.6593 42.5593 32.8193 42.5593 32.9393C42.5741 33.2124 42.5741 33.4861 42.5593 33.7593C42.5506 33.8791 42.5506 33.9995 42.5593 34.1193C42.5593 34.1193 42.6693 33.5093 42.5593 33.9993C42.5593 34.2093 42.4793 34.4093 42.4293 34.6193C42.3799 34.8289 42.3198 35.0358 42.2492 35.2393V35.3193C42.1692 35.5093 42.1692 35.5093 42.2492 35.3193C42.3392 35.1093 42.3292 35.1293 42.2492 35.3193L42.1793 35.4493C42.1157 35.5312 42.0588 35.6182 42.0093 35.7093C42.0093 35.7093 42.3493 35.2093 42.0893 35.5593C41.8293 35.9093 42.0092 35.3493 42.2492 35.4493L41.9992 35.5993C41.9992 35.5993 42.4992 35.3893 42.2492 35.4693C41.9992 35.5493 42.7993 35.4693 42.4793 35.4693C42.3393 35.4693 42.0993 35.3893 42.4793 35.4693C42.6635 35.467 42.8432 35.5269 42.9892 35.6393L42.8592 35.5593C43.4192 35.9793 42.9293 35.6093 42.7893 35.4593C42.6444 35.3065 42.5076 35.1462 42.3792 34.9793C42.2592 34.8293 42.0992 34.7893 42.4592 35.0893C42.3839 35.0061 42.3169 34.9156 42.2593 34.8193C42.13 34.6387 42.0098 34.4518 41.8993 34.2593C41.8397 34.1627 41.7863 34.0625 41.7392 33.9593C41.8692 34.2793 41.8993 34.3493 41.8393 34.1793C41.8081 34.1009 41.7814 34.0207 41.7593 33.9393C41.7465 33.8436 41.7231 33.7497 41.6892 33.6593C41.6892 33.7493 41.6892 34.2493 41.6892 33.8993C41.6992 33.8062 41.6992 33.7124 41.6892 33.6193C41.6192 34.0193 41.6092 34.1293 41.6892 33.9293C41.7 33.8613 41.7167 33.7943 41.7392 33.7293C41.7992 33.4693 41.9093 33.6593 41.6393 33.9393C41.6969 33.8662 41.744 33.7854 41.7793 33.6993C41.6193 34.0693 41.4793 34.0693 41.6693 33.8993C41.3293 34.1393 41.2392 34.2093 41.4092 34.1093C41.5792 34.0093 41.4692 34.0593 41.0792 34.2293C41.0792 34.2293 41.2993 34.1393 41.3093 34.1693C41.3193 34.1993 40.5793 34.2293 41.0693 34.1693C41.1325 34.1743 41.196 34.1743 41.2593 34.1693C40.8193 34.0993 40.6993 34.0893 40.8893 34.1693L41.0693 34.2193C41.0693 34.2193 40.4593 33.9093 40.8093 34.1193C41.1593 34.3293 40.4393 33.7693 40.6493 33.9793C40.6876 34.0243 40.7313 34.0646 40.7793 34.0993C40.5393 33.7693 40.4693 33.6793 40.5693 33.8393C40.6081 33.8925 40.6416 33.9495 40.6693 34.0093C40.6193 33.9593 40.4793 33.4093 40.5393 33.7693C40.5393 33.6293 40.5393 33.1193 40.5393 33.5393C40.5393 33.9493 40.5393 33.6493 40.5393 33.5393C40.5393 33.5393 40.8493 32.9893 40.6393 33.2993C40.6393 33.3793 40.3693 33.7193 40.6393 33.3593C40.9093 32.9993 40.7093 33.2693 40.6393 33.3593C40.5693 33.4493 41.1693 32.9593 40.7893 33.2293C40.6493 33.3293 40.3193 33.3693 41.0393 33.1293C40.6493 33.2593 41.5793 33.1293 41.2793 33.1293C41.1593 33.1293 40.8793 33.1293 41.2793 33.1293C41.2793 33.1293 41.8993 33.4393 41.5593 33.2293C41.9098 33.4469 42.1693 33.7845 42.2893 34.1793C42.0929 33.5603 41.686 33.0296 41.1393 32.6793C40.5543 32.3441 39.8603 32.2542 39.2092 32.4293C38.0492 32.7993 36.9292 34.2093 37.4692 35.4993C37.6463 36.0612 37.9509 36.5746 38.3592 36.9993C38.777 37.4112 39.2832 37.7223 39.8393 37.9093C40.6987 38.1996 41.6298 38.1996 42.4892 37.9093C44.3257 37.265 45.5667 35.5452 45.5992 33.5993C45.5837 31.6838 44.3252 30.0006 42.4924 29.4439C40.6595 28.8872 38.6775 29.5861 37.5992 31.1693C36.6649 32.816 36.6649 34.8326 37.5992 36.4793C37.9957 37.1949 38.4684 37.8655 39.0093 38.4793C39.4787 39.0998 40.0798 39.6087 40.7692 39.9693C42.859 40.8974 45.3132 40.1419 46.5192 38.1993C47.3888 36.74 47.8354 35.0678 47.8093 33.3693C47.8537 32.5256 47.7557 31.6804 47.5192 30.8693C47.1276 29.6016 46.0984 28.6332 44.8093 28.3193C43.2389 27.9176 41.5762 28.0988 40.1292 28.8293C39.2265 29.3877 38.5903 30.29 38.3677 31.3279C38.145 32.3658 38.355 33.4497 38.9493 34.3293C39.9027 35.6603 41.1936 36.7131 42.6892 37.3793C44.4301 38.3346 46.5384 38.3346 48.2793 37.3793C49.908 36.3292 50.9173 34.5462 50.9793 32.6093C51.0129 29.1996 48.7062 26.2108 45.3993 25.3793C43.4753 24.908 41.4434 25.2096 39.7392 26.2193C37.7892 27.4393 36.4993 29.9893 37.9293 32.1093C39.1435 33.6715 41.1441 34.4018 43.0792 33.9893C45.0823 33.8679 46.8187 32.5606 47.4892 30.6693C47.8565 29.3383 47.0753 27.9616 45.7443 27.5943C44.4132 27.227 43.0365 28.0083 42.6693 29.3393L42.4992 29.3793Z" fill="black"/>
    <path d="M13.6593 46.1793C12.5495 52.2517 12.7988 58.4946 14.3893 64.4593C15.9193 70.1493 18.7393 76.3893 23.0793 80.4593C27.2907 84.3621 33.4954 85.2096 38.5993 82.5793C44.0893 79.7993 45.8893 73.6593 46.5393 67.9893C47.5607 60.3478 47.4462 52.5972 46.1993 44.9893C45.8204 43.6695 44.4579 42.8929 43.1293 43.2393C41.8151 43.6314 41.0434 44.9896 41.3793 46.3192C42.4693 52.2192 42.2693 58.2692 41.8593 64.2292C41.5593 68.5692 41.2993 73.9193 37.8593 77.0493C34.8442 79.6155 30.4606 79.7728 27.2693 77.4293C25.3377 75.7149 23.7554 73.6436 22.6093 71.3293C21.3669 69.1564 20.3611 66.8566 19.6093 64.4692C17.8844 58.9736 17.4936 53.146 18.4693 47.4692C18.7999 46.1458 18.0346 44.7955 16.7293 44.3992C15.3996 44.0401 14.0279 44.815 13.6493 46.1392L13.6593 46.1793Z" fill="black"/>
    <path d="M11.9893 30.2693C8.65592 24.676 5.50259 18.9893 2.52926 13.2093C1.78926 11.7793 -0.360738 13.0393 0.369262 14.4693C3.34926 20.2626 6.5026 25.9493 9.82926 31.5293C10.1772 32.1257 10.9428 32.3272 11.5393 31.9793C12.1357 31.6313 12.3372 30.8658 11.9893 30.2693Z" fill="black"/>
    <path d="M17.4092 30.5793C16.5759 20.7593 15.3059 10.9959 13.5992 1.28925C13.3192 -0.290753 10.9092 0.37925 11.1892 1.94925C12.8492 11.4426 14.0892 20.9859 14.9092 30.5793C15.0492 32.1693 17.5492 32.1893 17.4092 30.5793Z" fill="black"/>
    <path d="M18.7293 32.7393L23.4893 21.8792C23.8149 21.2799 23.6178 20.5306 23.0393 20.1693C22.4446 19.8252 21.684 20.0209 21.3293 20.6093L16.5693 31.4793C16.2436 32.0786 16.4408 32.8279 17.0193 33.1892C17.6165 33.5315 18.3779 33.3312 18.7293 32.7393Z" fill="black"/>
    <path d="M40.4493 31.6692C39.2306 24.2974 37.2603 17.0697 34.5693 10.0992C33.9993 8.60921 31.5693 9.25921 32.1593 10.7592C34.8478 17.7305 36.818 24.9579 38.0393 32.3292C38.2993 33.9092 40.7093 33.2392 40.4493 31.6692Z" fill="black"/>
    <path d="M45.6492 33.9393C44.6234 27.3172 44.0123 20.6375 43.8192 13.9393C43.7692 12.3293 41.2692 12.3293 41.3192 13.9393C41.5236 20.8462 42.1649 27.7333 43.2392 34.5592C43.4892 36.1492 45.8992 35.4692 45.6492 33.8992V33.9393Z" fill="black"/>
    <path d="M48.3593 33.3493C50.9326 25.5493 53.6259 17.7993 56.4393 10.0993C56.9893 8.58927 54.5793 7.92927 54.0293 9.43927C51.2226 17.1726 48.5293 24.9193 45.9493 32.6793C45.4393 34.2093 47.8493 34.8693 48.3593 33.3493Z" fill="black"/>
</svg>