<svg xml:space="preserve" viewBox="366.48072 498.24072 69.12 97.2" version="1.1" xmlns:xlink="http://www.w3.org/1999/xlink" xmlns="http://www.w3.org/2000/svg" style="max-height: 500px" width="69.12" height="97.2">
<desc>Created with Fabric.js 5.2.4</desc>
<defs>
</defs>
<rect fill="transparent" height="100%" width="100%" y="0" x="0"/>
<g id="c2feb144-5e59-46e9-a83c-fda860d3b333" transform="matrix(1 0 0 1 540 540)">
<rect height="1080" width="1080" ry="0" rx="0" y="-540" x="-540" style="stroke: none; stroke-width: 1; stroke-dasharray: none; stroke-linecap: butt; stroke-dashoffset: 0; stroke-linejoin: miter; stroke-miterlimit: 4; fill: rgb(255,255,255); fill-rule: nonzero; opacity: 1; visibility: hidden;"/>
</g>
<g id="efbd36f3-7c97-4189-803a-654e7a812ba8" transform="matrix(1 0 0 1 540 540)">
</g>
<g transform="matrix(1 0 0 1 540 540)">
<g style="">
		<g transform="matrix(1 0 0 1 -73.47 12.46)">
<path stroke-linecap="round" d="M 169.35 470.47 C 169.35 462.47 171.81 454.74 173.68 447 C 174.656016485446 443.0527666555147 175.3609939727672 439.0434160167211 175.79000000000002 435 C 176.00000000000003 432.93 176.15000000000003 430.85 176.34000000000003 428.78 C 176.44000000000003 427.65999999999997 176.55000000000004 426.54999999999995 176.69000000000003 425.44 C 176.75000000000003 425.02 176.81000000000003 424.61 176.88000000000002 424.2 C 176.95000000000002 423.78999999999996 176.98000000000002 423.57 177.04000000000002 423.2 C 177.10000000000002 422.83 177.11 422.83 176.98000000000002 423.27 L 175.87 423.91999999999996 C 177.41 423.28 179.16 422.91999999999996 180.75 422.44999999999993 C 182.25962617389948 421.9382715523214 183.82333175877386 421.60271241393633 185.40999999999997 421.44999999999993 C 186.7165611321736 421.3186831991775 188.03535891929502 421.511007876466 189.25 422.00999999999993 C 189.74864576380736 422.2270440683217 190.19779570656058 422.54349061889786 190.57 422.93999999999994 C 190.65910667020702 423.01734551970907 190.7306981687372 423.1128008510826 190.78 423.2199999999999 C 190.89000000000001 423.43999999999994 190.91 423.43999999999994 190.83 423.2199999999999 C 190.96 422.8099999999999 190.26000000000002 423.6799999999999 190.4 423.5199999999999 C 186.45274928152634 427.84412703897726 181.03853517877258 430.5458875984818 175.21 431.0999999999999 C 173.84262929648673 431.13168920221796 172.74168920221805 432.2326292964866 172.71 433.5999999999999 C 172.72087940412962 434.9761802872993 173.83381971270057 436.0891205958703 175.21 436.0999999999999 C 182.48984133616852 435.38031423487894 189.80642526292868 435.0998062249073 197.11999999999995 435.2599999999999 C 200.6623057333471 435.3811107576168 204.1897208379995 435.77898980733585 207.67000000000002 436.44999999999993 C 209.44116349660032 436.79699150212696 211.1934465339775 437.2342278409772 212.92000000000004 437.75999999999993 C 214.480693696069 438.1233420197232 215.97988128452286 438.7129101724859 217.37 439.50999999999993 C 218.6 440.3299999999999 218.98000000000002 441.79999999999995 219.37 443.1599999999999 C 219.97143033155476 444.8023081839967 220.17699625794606 446.5633229534155 219.97 448.2999999999999 C 219.38 451.2999999999999 216.73 453.3999999999999 214.14 454.7499999999999 C 208 457.9699999999999 200.67999999999998 459.4199999999999 193.83999999999997 460.0599999999999 C 185.6746392898886 460.69220130868905 177.4662975280634 460.49788138126627 169.33999999999995 459.4799999999999 C 167.96381971270054 459.4908794041295 166.85087940412959 460.6038197127005 166.83999999999997 461.9799999999999 C 166.8666005288785 463.3495422627158 167.97045773728414 464.4533994711214 169.33999999999997 464.4799999999999 C 177.24059437652755 465.464457035286 185.21841292763375 465.6754572740432 193.16000000000003 465.1099999999999 C 201.09999999999997 464.4399999999999 209.32999999999998 462.8199999999999 216.46999999999997 459.1699999999999 C 219.88510007709218 457.57655209445284 222.6241995237682 454.8232787825935 224.19999999999996 451.3999999999999 C 225.82999999999996 447.50999999999993 224.88999999999996 442.93999999999994 223.25999999999996 439.1799999999999 C 221.62999999999997 435.41999999999985 217.95999999999995 434.0699999999999 214.25999999999996 432.9399999999999 C 210.37061874138428 431.78674217443813 206.37862655759386 431.0131262394922 202.33999999999997 430.6299999999999 C 193.33999999999997 429.6899999999999 184.22999999999996 430.3899999999999 175.22999999999996 431.0999999999999 L 175.22999999999996 436.0999999999999 C 181.49613579953188 435.5700832036504 187.42360251977337 433.0307424311919 192.12999999999997 428.8599999999999 C 193.27862812770113 427.9239530827434 194.28868710865333 426.8297225200452 195.12999999999997 425.6099999999999 C 196.14613759528422 423.9084832196095 196.00690873763904 421.7564028771513 194.77999999999997 420.1999999999999 C 192.83999999999997 417.51999999999987 189.37999999999997 416.4199999999999 186.18999999999997 416.4199999999999 C 182.99999999999997 416.4199999999999 179.75999999999996 417.63999999999993 176.60999999999996 418.5399999999999 C 174.84999999999997 419.0399999999999 173.03999999999996 419.4099999999999 172.37999999999997 421.3599999999999 C 171.91238771219736 423.15939246767385 171.6342085409921 425.00274842144364 171.54999999999995 426.8599999999999 C 171.16999999999996 430.2999999999999 171.02999999999994 433.7599999999999 170.54999999999995 437.1899999999999 C 170.0377945092991 440.6572073770958 169.32999873108645 444.09268782889205 168.42999999999992 447.4799999999999 C 166.52999999999994 455.0399999999999 164.35999999999996 462.6299999999999 164.35999999999996 470.4799999999999 C 164.35999999999996 473.69999999999993 169.35999999999996 473.69999999999993 169.35999999999996 470.4799999999999 Z" transform="translate(-194.7, -444.66)" style="stroke: none; stroke-width: 1; stroke-dasharray: none; stroke-linecap: butt; stroke-dashoffset: 0; stroke-linejoin: miter; stroke-miterlimit: 4; fill: rgb(255,255,255); fill-rule: nonzero; opacity: 1;"/>
</g>
		<g transform="matrix(1 0 0 1 -36.79 14.45)">
<path stroke-linecap="round" d="M 228.81 432.18 L 228.97 461.12 C 228.97 464.33 233.97 464.34000000000003 233.97 461.12 L 233.81 432.18 C 233.81 428.96 228.81 428.95 228.81 432.18 Z" transform="translate(-231.39, -446.65)" style="stroke: none; stroke-width: 1; stroke-dasharray: none; stroke-linecap: butt; stroke-dashoffset: 0; stroke-linejoin: miter; stroke-miterlimit: 4; fill: rgb(255,255,255); fill-rule: nonzero; opacity: 1;"/>
</g>
		<g transform="matrix(1 0 0 1 -40.53 -15.2)">
<path stroke-linecap="round" d="M 227.65 419.5 C 230.86 419.5 230.87 414.5 227.65 414.5 C 224.43 414.5 224.42000000000002 419.5 227.65 419.5 Z" transform="translate(-227.65, -417)" style="stroke: none; stroke-width: 1; stroke-dasharray: none; stroke-linecap: butt; stroke-dashoffset: 0; stroke-linejoin: miter; stroke-miterlimit: 4; fill: rgb(255,255,255); fill-rule: nonzero; opacity: 1;"/>
</g>
		<g transform="matrix(1 0 0 1 -7.85 -15.09)">
<path stroke-linecap="round" d="M 240.69 421 Q 260.34 419.08 280.06 418.22 C 283.26 418.08000000000004 283.28000000000003 413.08000000000004 280.06 413.22 Q 260.34000000000003 414.09000000000003 240.69 416 C 239.32478084768752 416.03670506055414 238.2267050605541 417.1347808476875 238.19 418.5 C 238.2008794041296 419.8761802872994 239.3138197127006 420.9891205958704 240.69 421 Z" transform="translate(-260.33, -417.11)" style="stroke: none; stroke-width: 1; stroke-dasharray: none; stroke-linecap: butt; stroke-dashoffset: 0; stroke-linejoin: miter; stroke-miterlimit: 4; fill: rgb(255,255,255); fill-rule: nonzero; opacity: 1;"/>
</g>
		<g transform="matrix(1 0 0 1 -13.41 9.08)">
<path stroke-linecap="round" d="M 252.79 419.65 Q 251.51 441.25 252.20999999999998 462.89 C 252.30999999999997 466.09999999999997 257.32 466.11 257.21 462.89 Q 256.52 441.26 257.78999999999996 419.65 C 257.97999999999996 416.44 252.97999999999996 416.45 252.78999999999996 419.65 Z" transform="translate(-254.77, -441.27)" style="stroke: none; stroke-width: 1; stroke-dasharray: none; stroke-linecap: butt; stroke-dashoffset: 0; stroke-linejoin: miter; stroke-miterlimit: 4; fill: rgb(255,255,255); fill-rule: nonzero; opacity: 1;"/>
</g>
		<g transform="matrix(1 0 0 1 10.56 15.68)">
<path stroke-linecap="round" d="M 296.29 430.5 C 285.21000000000004 431.5 271.66 430.42 263.69 439.88 C 261.7734564214233 442.16364232735174 260.4051689407116 444.855747945652 259.69 447.75 C 258.7990194612953 450.7092720038962 258.5033237868682 453.8157759858086 258.82 456.89 C 259.82 463.19 267.52 464.45 272.74 465.01 C 279.99 465.78 287.3 464.53999999999996 294.44 463.34999999999997 C 295.7642300477219 462.9713401304954 296.5391424873684 461.59965604192575 296.18 460.27 C 295.7880059718743 458.9612536779191 294.43421807690925 458.19396021302026 293.11 458.53 C 287.69827846789525 459.58495508906026 282.2030633070374 460.15388723117104 276.69 460.22999999999996 C 274.04347350153967 460.22433483093323 271.4062983485628 459.9156578410173 268.83 459.30999999999995 C 267.24 458.91999999999996 264.65 458.41999999999996 263.90999999999997 456.69999999999993 C 263.59899289835676 455.7067126709978 263.54056385654155 454.6515529158644 263.73999999999995 453.62999999999994 C 263.8612176869233 452.3178479570244 264.0683284806995 451.01505425423863 264.35999999999996 449.72999999999996 C 264.788897926095 447.4906780304827 265.72632320349817 445.3797605262572 267.09999999999997 443.55999999999995 C 269.78 440.19999999999993 273.86999999999995 438.28999999999996 277.95 437.25999999999993 C 283.95 435.75999999999993 290.18 436.0399999999999 296.28 435.49999999999994 C 297.64521915231245 435.4632949394458 298.74329493944583 434.3652191523124 298.78 432.99999999999994 C 298.7691205958704 431.62381971270054 297.6561802872994 430.5108794041295 296.28 430.49999999999994 Z" transform="translate(-278.74, -447.87)" style="stroke: none; stroke-width: 1; stroke-dasharray: none; stroke-linecap: butt; stroke-dashoffset: 0; stroke-linejoin: miter; stroke-miterlimit: 4; fill: rgb(255,255,255); fill-rule: nonzero; opacity: 1;"/>
</g>
		<g transform="matrix(1 0 0 1 39.29 8.91)">
<path stroke-linecap="round" d="M 305.36 414.2 C 304.05827963000877 432.1184433874599 304.11176508397153 450.1096129641895 305.52000000000004 468.02000000000015 C 305.54660052887857 469.38954226271585 306.65045773728417 470.49339947112145 308.02000000000004 470.52 C 309.39618028729944 470.5091205958704 310.50912059587046 469.3961802872994 310.52000000000004 468.02 C 309.11176508397153 450.10961296418935 309.0582796300089 432.1184433874598 310.3600000000001 414.19999999999993 C 310.36 412.819288125423 309.240711874577 411.7 307.86 411.7 C 306.479288125423 411.7 305.36 412.819288125423 305.36 414.2 Z" transform="translate(-307.47, -441.11)" style="stroke: none; stroke-width: 1; stroke-dasharray: none; stroke-linecap: butt; stroke-dashoffset: 0; stroke-linejoin: miter; stroke-miterlimit: 4; fill: rgb(255,255,255); fill-rule: nonzero; opacity: 1;"/>
</g>
		<g transform="matrix(1 0 0 1 49.59 8.79)">
<path stroke-linecap="round" d="M 320.17 468.35 C 319.4238370757692 459.0362498724926 319.23683481211435 449.6861366897498 319.61 440.35 C 319.73 435.86 319.75 431.35 320.17 426.85 C 320.61 422.17 321.66 417.67 320.79 412.97 C 320.42273064136253 411.6389937529078 319.04600624709224 410.85773064136254 317.71500000000003 411.225 C 316.3839937529078 411.5922693586375 315.60273064136254 412.9689937529078 315.97 414.3 C 316.76000000000005 418.59000000000003 315.5 423.05 315.13000000000005 427.3 C 314.74000000000007 431.79 314.71000000000004 436.3 314.59000000000003 440.82 C 314.2330938733213 449.996680313976 314.4267747840127 459.1865055936818 315.16999999999996 468.33999999999986 C 315.20670506055416 469.70521915231245 316.30478084768754 470.80329493944583 317.67 470.84 C 319.0461802872994 470.8291205958704 320.15912059587043 469.7161802872994 320.17 468.34 Z" transform="translate(-317.77, -440.99)" style="stroke: none; stroke-width: 1; stroke-dasharray: none; stroke-linecap: butt; stroke-dashoffset: 0; stroke-linejoin: miter; stroke-miterlimit: 4; fill: rgb(255,255,255); fill-rule: nonzero; opacity: 1;"/>
</g>
		<g transform="matrix(1 0 0 1 43.94 9.89)">
<path stroke-linecap="round" d="M 308.1 444.85 C 311.01087900497794 444.93208759437204 313.9225538354252 444.7176489417269 316.79 444.21000000000004 C 318.1146814140136 443.8311161886357 318.89264074532224 442.4619077655325 318.54 441.13000000000005 C 318.14361154200367 439.81985454649384 316.786742592406 439.05331169834443 315.46000000000004 439.39000000000004 C 314.95000000000005 439.49000000000007 314.46000000000004 439.58000000000004 313.93000000000006 439.65000000000003 L 314.6000000000001 439.56000000000006 C 312.44183678933257 439.79651077007054 310.270650603836 439.89337907680806 308.1000000000001 439.8500000000001 C 306.7238197127007 439.86087940412966 305.61087940412966 440.9738197127007 305.6000000000001 442.3500000000001 C 305.6266005288786 443.71954226271595 306.7304577372842 444.82339947112155 308.1000000000001 444.8500000000001 Z" transform="translate(-312.11, -442.09)" style="stroke: none; stroke-width: 1; stroke-dasharray: none; stroke-linecap: butt; stroke-dashoffset: 0; stroke-linejoin: miter; stroke-miterlimit: 4; fill: rgb(255,255,255); fill-rule: nonzero; opacity: 1;"/>
</g>
		<g transform="matrix(1 0 0 1 74.75 7.16)">
<path stroke-linecap="round" d="M 331.34 466.76 Q 330.65 438.56 331.53 410.34 L 327.77 412.5 C 331.62 414.23 335.28999999999996 412.31 339.22999999999996 412.12 C 341.60999999999996 412 345.36999999999995 411.95 347.02 414.12 C 348.67 416.29 346.34 419.98 345.08 421.87 C 341.51416929380036 427.08573225590925 335.82667784704535 430.460164118141 329.53999999999996 431.09000000000003 C 328.15928812542296 431.09000000000003 327.03999999999996 432.20928812542303 327.03999999999996 433.59000000000003 C 327.03999999999996 434.97071187457703 328.15928812542296 436.09000000000003 329.53999999999996 436.09000000000003 C 337.84 436.91 347.71 438.68 352.65 446.23 C 354.9874519463697 449.73607797971124 355.53237285002257 454.1399285480079 354.12 458.11 C 352.7553357493325 461.80067457597283 349.7796426766481 464.66588399496845 346.04 465.89 C 343.4401633439012 466.62136967988783 340.7214780599681 466.8320677893926 338.04 466.51 C 336.7391102327734 466.42370648371354 335.44386860321936 466.2668086574531 334.16 466.03999999999996 C 333.77940449498885 465.97858403173416 333.40472119537026 465.88491320682954 333.04 465.76 C 332.85 465.68 332.49 465.25 332.59000000000003 465.53999999999996 C 332.1936115420037 464.22985454649375 330.836742592406 463.46331169834434 329.51000000000005 463.79999999999995 C 328.18713278605884 464.1741423867975 327.41139001612885 465.54283796362796 327.77000000000004 466.86999999999995 C 328.69000000000005 469.48999999999995 331.03000000000003 470.60999999999996 333.63000000000005 470.98999999999995 C 336.6260493072126 471.517314771631 339.6712080088876 471.71182931424903 342.71000000000004 471.56999999999994 C 348.4019832453846 471.22203947258174 353.6236851238025 468.29449857459707 356.89000000000004 463.61999999999995 C 360.10996550742067 458.86589369510614 360.85380604029126 452.8556621895115 358.89000000000004 447.4599999999999 C 356.9047819306459 442.5484002512959 353.2551099891223 438.4916359011639 348.58 436 C 342.77 432.72 336.08 431.72 329.58 431.07 L 329.58 436.07 C 337.1826104095365 435.42504314595396 344.14222533013765 431.5464508432642 348.69 425.42 C 351.03 422.3 353.15 418.18 352.43 414.17 C 351.71000000000004 410.16 347.95 408.03000000000003 344.33 407.41 C 341.9614974112102 407.02179410817484 339.5484203817618 406.98809191502613 337.16999999999996 407.31 C 335.81999999999994 407.49 334.50999999999993 407.78000000000003 333.16999999999996 408.07 C 332.2547676953234 408.3852518600897 331.26687469550694 408.4235153213502 330.33 408.18 C 329.55219444436125 407.7556804573055 328.60988493007324 407.7655184655943 327.84110801169464 408.20598481670777 C 327.072331093316 408.6464511678213 326.5872958752661 409.4544021838959 326.56 410.34000000000003 Q 325.69 438.54 326.37 466.76000000000005 C 326.45 469.97 331.45 469.9800000000001 331.37 466.76000000000005 Z" transform="translate(-342.93, -439.35)" style="stroke: none; stroke-width: 1; stroke-dasharray: none; stroke-linecap: butt; stroke-dashoffset: 0; stroke-linejoin: miter; stroke-miterlimit: 4; fill: rgb(255,255,255); fill-rule: nonzero; opacity: 1;"/>
</g>
		<g transform="matrix(1 0 0 1 118.35 14.91)">
<path stroke-linecap="round" d="M 376.63 425 C 369.92 431.69 365.81 441.19 366.9 450.75 C 367.9 459.62 373.42999999999995 469.97 383.02 471.66 C 391.84 473.21000000000004 400.57 467.90000000000003 404.09 459.85 C 407.76 451.45000000000005 406.76 441.24 402.15999999999997 433.39000000000004 C 399.62626409384876 428.88414962633857 395.6182637720839 425.38818458797095 390.80999999999995 423.49000000000007 C 385.88299083171563 421.5978482086186 380.37379550505824 421.96342188656536 375.73999999999995 424.49000000000007 C 372.93999999999994 426.08000000000004 375.46 430.4100000000001 378.25999999999993 428.81000000000006 C 384.69999999999993 425.1600000000001 392.69999999999993 428.4700000000001 396.69999999999993 434.1600000000001 C 401.03730530097306 440.3226461590956 402.40791498395316 448.0955422489373 400.43999999999994 455.37000000000006 C 398.55999999999995 461.87000000000006 392.93999999999994 467.05000000000007 385.93999999999994 466.9700000000001 C 378.25999999999993 466.8800000000001 373.5299999999999 459.06000000000006 372.15999999999997 452.3200000000001 C 370.4 443.5900000000001 373.99999999999994 434.7100000000001 380.15999999999997 428.5600000000001 C 382.43999999999994 426.28000000000014 378.9 422.7500000000001 376.61999999999995 425.0200000000001 Z" transform="translate(-386.52, -447.11)" style="stroke: none; stroke-width: 1; stroke-dasharray: none; stroke-linecap: butt; stroke-dashoffset: 0; stroke-linejoin: miter; stroke-miterlimit: 4; fill: rgb(255,255,255); fill-rule: nonzero; opacity: 1;"/>
</g>
		<g transform="matrix(1 0 0 1 149.44 -12.98)">
<path stroke-linecap="round" d="M 400.62 408.82 C 406.22287192964507 416.07812649909533 411.07126644083627 423.888498030254 415.09 432.12999999999994 C 415.98 433.95 418.43 433.54 419.41 432.13 L 434.61 410.21999999999997 C 435.30864020853596 409.02706494036545 434.9079350596345 407.4936402085359 433.71500000000003 406.79499999999996 C 432.5220649403655 406.09635979146407 430.98864020853597 406.4970649403655 430.29 407.69 L 415.09000000000003 429.6 L 419.41 429.6 C 415.38895966534074 421.35977232104455 410.54070645695566 413.54962841728116 404.94 406.2900000000001 C 404.2140780282742 405.13728420634806 402.7192895940252 404.7439188289141 401.52 405.39000000000004 C 400.33487331686115 406.09662701590696 399.9344892520093 407.62253517417577 400.62 408.82000000000005 Z" transform="translate(-417.62, -419.21)" style="stroke: none; stroke-width: 1; stroke-dasharray: none; stroke-linecap: butt; stroke-dashoffset: 0; stroke-linejoin: miter; stroke-miterlimit: 4; fill: rgb(255,255,255); fill-rule: nonzero; opacity: 1;"/>
</g>
		<g transform="matrix(1 0 0 1 148.19 17.63)">
<path stroke-linecap="round" d="M 414.05 429.88 L 413.69 469.77 C 413.69 472.97999999999996 418.69 472.99 418.69 469.77 L 419.05 429.88 C 419.05 426.65999999999997 414.05 426.65999999999997 414.05 429.88 Z" transform="translate(-416.37, -449.82)" style="stroke: none; stroke-width: 1; stroke-dasharray: none; stroke-linecap: butt; stroke-dashoffset: 0; stroke-linejoin: miter; stroke-miterlimit: 4; fill: rgb(255,255,255); fill-rule: nonzero; opacity: 1;"/>
</g>
		<g transform="matrix(1 0 0 1 -151.46 -8.41)">
<path stroke-linecap="round" d="M 120.7 421.38 C 119.5 421.51 118.3 421.62 117.09 421.68 C 115.95029886923739 421.7949146669055 114.80302296691478 421.81498363312693 113.66 421.74 L 114.32 421.83 C 114.17225230717837 421.81348858839294 114.02752680638375 421.77646578586405 113.88999999999999 421.71999999999997 L 114.47999999999999 421.96999999999997 C 114.38236286421703 421.9207459553325 114.28874206219571 421.86390475410525 114.19999999999999 421.79999999999995 L 114.71 422.18999999999994 C 114.65831363565758 422.1449325232639 114.61140008471071 422.09466800439225 114.57 422.03999999999996 L 114.96 422.53999999999996 C 114.9211462451861 422.48676698972054 114.88765003556601 422.4298234333664 114.86 422.36999999999995 L 115.12 422.96999999999997 C 115.0923511877399 422.90934101058895 115.07220248262263 422.8455367777176 115.06 422.78 L 115.15 423.44 C 115.14484193225995 423.340066514157 115.14484193225995 423.239933485843 115.15 423.14 L 115.06 423.81 C 115.08470075418441 423.6769184590123 115.12152076351444 423.5463747895695 115.17 423.42 L 114.92 424.01 L 115.08 423.75 L 114.69 424.26 C 114.76255164924083 424.17893392966704 114.84294290377196 424.10524194634684 114.92999999999999 424.03999999999996 L 114.41999999999999 424.42999999999995 L 114.71999999999998 424.2699999999999 L 114.11999999999999 424.5199999999999 C 114.26587635246823 424.46815044095615 114.41665440887564 424.43129358272324 114.57 424.4099999999999 L 113.89999999999999 424.4999999999999 C 114.09281578347525 424.4799940369659 114.28718421652474 424.4799940369659 114.47999999999999 424.4999999999999 L 113.82 424.4099999999999 C 114.05996629094723 424.4403667925833 114.29515121273262 424.5008429153281 114.52 424.5899999999999 L 113.92 424.3399999999999 C 114.12756335276755 424.43723504216234 114.32516284573428 424.55445508036297 114.51 424.68999999999994 L 114 424.28999999999996 C 114.23422614701104 424.47428952803995 114.44571047196001 424.6857738529889 114.63 424.91999999999996 L 114.24 424.40999999999997 C 114.41168668443088 424.65507038431525 114.55905152731658 424.91630806033993 114.67999999999999 425.18999999999994 L 114.41999999999999 424.5899999999999 C 114.53156456877433 424.866176538366 114.60880877072518 425.15500268479093 114.64999999999999 425.44999999999993 L 114.55999999999999 424.7799999999999 C 114.59482380943516 425.04218203804504 114.59482380943516 425.3078179619548 114.55999999999999 425.56999999999994 L 114.64999999999999 424.8999999999999 C 114.62077716815614 425.12725885697296 114.5602009799516 425.3493715470563 114.46999999999998 425.55999999999995 L 114.71999999999998 424.96999999999997 C 114.66253919560818 425.10521515788986 114.5886500890953 425.2328417964121 114.49999999999999 425.34999999999997 L 114.88999999999999 424.84999999999997 L 114.79999999999998 424.92999999999995 L 115.30999999999999 424.53999999999996 L 115.21999999999998 424.59999999999997 L 115.81999999999998 424.34999999999997 C 115.74950726222646 424.3792469990065 115.67558068126974 424.39940879381294 115.59999999999998 424.40999999999997 L 116.25999999999998 424.32 L 116.14999999999998 424.32 L 116.80999999999997 424.40999999999997 C 116.73325549783658 424.3938606811299 116.65918564078626 424.36692618765704 116.58999999999997 424.33 L 117.18999999999997 424.59 L 117.01999999999997 424.48999999999995 L 117.52999999999997 424.87999999999994 C 117.45281385086979 424.82131075722685 117.38238239719824 424.75423318230156 117.31999999999998 424.67999999999995 L 117.70999999999998 425.18999999999994 C 117.63392357288579 425.0859854085985 117.56700644887049 424.9755721539733 117.50999999999998 424.85999999999996 L 117.76999999999998 425.46 C 117.71831725523454 425.33817087334637 117.68138842080366 425.2105985362215 117.65999999999998 425.08 L 117.74999999999999 425.75 C 117.72999196785982 425.58393381535853 117.72999196785982 425.41606618464147 117.74999999999999 425.25 L 117.65999999999998 425.92 C 117.67795077076333 425.7865334949778 117.71151398601933 425.6556369554794 117.75999999999998 425.53000000000003 L 117.50999999999998 426.13000000000005 C 117.58302218019696 425.94760206959563 117.68058859936386 425.7760197462332 117.79999999999998 425.62000000000006 L 117.39999999999998 426.12000000000006 C 117.5796446943371 425.90365150095755 117.78066302897227 425.70598347189963 117.99999999999997 425.5300000000001 L 117.48999999999997 425.9200000000001 C 117.82834442998039 425.66670828092884 118.1939489608888 425.4520414003955 118.57999999999997 425.2800000000001 L 117.97999999999998 425.5300000000001 C 118.2294050168097 425.4232807677812 118.4915882309516 425.34933165610016 118.75999999999998 425.31000000000006 L 118.09999999999998 425.40000000000003 C 118.22956954669799 425.3850388597683 118.36043045330196 425.3850388597683 118.48999999999998 425.40000000000003 L 117.82999999999998 425.31000000000006 C 117.98077694843728 425.3276464012595 118.12865732725675 425.3646164959644 118.26999999999998 425.4200000000001 L 117.66999999999999 425.1700000000001 C 117.78303078191826 425.21790869948745 117.89036174395231 425.27828236563164 117.98999999999998 425.3500000000001 L 117.48999999999998 424.9600000000001 L 117.74999999999999 425.2200000000001 L 117.35999999999999 424.7200000000001 C 117.47767288662918 424.8699526557436 117.57517096098655 425.0346907813819 117.64999999999999 425.2100000000001 L 117.39999999999999 424.61000000000007 C 117.44935465293406 424.7641283539966 117.48942650871258 424.92107645579586 117.52 425.0800000000001 L 117.42999999999999 424.4100000000001 C 117.45916785150105 424.6055851875635 117.45916785150105 424.8044148124366 117.42999999999999 425.00000000000006 L 117.52 424.33000000000004 C 117.49921738424521 424.4909551368388 117.4589210764218 424.64878234248056 117.39999999999999 424.80000000000007 L 117.64999999999999 424.20000000000005 C 117.57223870237397 424.3591460567782 117.47841804653861 424.5099292536564 117.36999999999999 424.65000000000003 L 117.75999999999999 424.15000000000003 C 117.64613912222484 424.28885592366447 117.51885592366442 424.4161391222249 117.38 424.53000000000003 L 117.89 424.14000000000004 C 117.68766100303844 424.295128946679 117.46574792339543 424.4228970834431 117.23 424.52000000000004 L 117.82000000000001 424.27000000000004 C 117.57907311785098 424.36694722212434 117.3272090664899 424.43411096915395 117.07000000000001 424.47 L 117.74000000000001 424.38000000000005 C 117.43128942418507 424.4199860724437 117.11871057581494 424.4199860724437 116.81 424.38000000000005 L 117.48 424.47 C 117.08787915125568 424.40728156597197 116.70498945286658 424.29644507433306 116.34 424.14000000000004 L 116.93 424.39000000000004 C 116.40438604706041 424.1466208353797 115.90791214344306 423.84471102912585 115.45 423.49000000000007 L 115.96000000000001 423.88000000000005 C 115.70000571977799 423.68651084933447 115.46192682792272 423.46519807662395 115.25000000000001 423.22 L 115.64000000000001 423.72 C 115.54623616691721 423.59542361220497 115.46579618542731 423.46135697638846 115.40000000000002 423.32000000000005 L 115.65000000000002 423.9200000000001 C 115.59478588376513 423.7848010487617 115.55454595102084 423.6439612841567 115.53000000000002 423.50000000000006 L 115.62000000000002 424.1700000000001 C 115.62000000000002 424.06000000000006 115.62000000000002 423.9600000000001 115.62000000000002 423.8500000000001 L 115.53000000000002 424.5200000000001 C 115.54600162385842 424.417456311789 115.57281782905011 424.31689554232014 115.61000000000001 424.2200000000001 L 115.36000000000001 424.81000000000006 C 115.4006001775717 424.719171470295 115.45452740267868 424.6349101810654 115.52000000000001 424.56000000000006 L 115.13000000000001 425.06000000000006 C 115.17169362443306 425.011601549072 115.21864996165064 424.96799923594136 115.27000000000001 424.93000000000006 L 114.77000000000001 425.32000000000005 C 114.830912009406 425.2737244795071 114.89830003907646 425.2366610631883 114.97000000000001 425.21000000000004 L 114.38000000000001 425.46000000000004 C 114.45957001210901 425.42817025106416 114.54430854692404 425.4112225441011 114.63000000000001 425.41 L 113.96000000000001 425.49 C 114.51 425.49 115.07000000000001 425.56 115.62 425.49 C 116.15591918968866 425.44994274207096 116.69408081031133 425.44994274207096 117.22999999999999 425.49 L 116.57000000000001 425.40000000000003 C 116.80543415847009 425.43174124964133 117.03676702409176 425.48873630349016 117.26 425.57000000000005 L 116.66000000000001 425.32000000000005 C 116.84047363751964 425.3969605543062 117.01157962763743 425.4942561173143 117.17000000000002 425.61000000000007 L 116.66000000000001 425.2200000000001 C 116.80715455482468 425.33545802782 116.93830380103591 425.4699700752161 117.05000000000001 425.62000000000006 L 116.66000000000001 425.11000000000007 C 116.81491246726871 425.3214390983514 116.94572341875987 425.5495197317206 117.05000000000001 425.7900000000001 L 116.80000000000001 425.2000000000001 C 116.96491438204639 425.62787446453814 117.0757714715228 426.0746621281855 117.13000000000001 426.5300000000001 L 117.04 425.86000000000007 C 117.07989648157925 426.1519767459109 117.07989648157925 426.44802325408926 117.04 426.74000000000007 L 117.13000000000001 426.08000000000004 C 117.1074116824123 426.22006040616816 117.0705531137219 426.35744234401426 117.02000000000001 426.49000000000007 L 117.27000000000001 425.89000000000004 C 117.2298948037394 425.9851516804898 117.17960151182535 426.0756796059351 117.12 426.16 L 117.51 425.66 L 117.29 425.88000000000005 L 117.80000000000001 425.49000000000007 C 117.71000000000001 425.5400000000001 117.64000000000001 425.5900000000001 117.55000000000001 425.63000000000005 L 118.14000000000001 425.38000000000005 C 118.05266324097798 425.4105151018745 117.962040871908 425.4306534061123 117.87000000000002 425.44000000000005 L 118.54000000000002 425.3500000000001 L 118.25000000000001 425.3500000000001 L 118.92000000000002 425.43000000000006 C 118.75564992907312 425.41002137369037 118.5944164749636 425.369713010163 118.44000000000001 425.31000000000006 L 119.04 425.56000000000006 C 118.84795820061538 425.4751032135662 118.66668689805871 425.36768318242144 118.5 425.24000000000007 L 119 425.63000000000005 C 118.86449241480759 425.51947340131665 118.7405265986834 425.3955075851925 118.63 425.26000000000005 L 119.02 425.76000000000005 C 118.88226862531133 425.57661712888915 118.764910598468 425.37878502649613 118.67 425.1700000000001 L 118.92 425.76000000000005 C 118.79427141935861 425.4380634731256 118.7070004359167 425.10240584450287 118.66 424.76000000000005 L 118.75 425.43000000000006 C 118.70499804534764 425.0513323525807 118.70499804534764 424.66866764741945 118.75 424.2900000000001 L 118.66 424.9500000000001 C 118.7278868528755 424.485488906299 118.85561469605625 424.0317189371042 119.03999999999999 423.6000000000001 L 118.78999999999999 424.2000000000001 C 118.93669284817959 423.86867538087216 119.11767989515286 423.55362385465946 119.33 423.2600000000001 L 118.94 423.7700000000001 C 119.08145646244225 423.58345485831524 119.24236239666791 423.41249230320045 119.42 423.2600000000001 L 118.92 423.6600000000001 C 119.07177698652525 423.5394404619124 119.23605034583382 423.4355124182682 119.41 423.3500000000001 L 118.81 423.61000000000007 C 118.97396453684262 423.5436217117505 119.14512588247165 423.496636244323 119.32000000000001 423.4700000000001 L 118.66000000000001 423.56000000000006 C 118.79961198309272 423.5452592582248 118.9403880169073 423.5452592582248 119.08000000000001 423.56000000000006 L 118.41000000000001 423.4700000000001 C 118.54672349170379 423.48790212930714 118.68093709352866 423.5214555297634 118.81000000000002 423.5700000000001 L 118.21000000000002 423.3200000000001 L 118.48000000000002 423.4700000000001 L 117.97000000000001 423.0800000000001 C 118.0538762298951 423.14540481471295 118.13093375830732 423.2191120158029 118.20000000000002 423.3000000000001 L 117.80000000000001 422.79000000000013 C 117.86592160142195 422.8738293572676 117.92289799081938 422.96432126984 117.97000000000001 423.0600000000001 L 117.72000000000001 422.4600000000001 C 117.72000000000001 422.5700000000001 117.78000000000002 422.6600000000001 117.80000000000001 422.7700000000001 L 117.71000000000001 422.1000000000001 C 117.72500050844016 422.24294086486805 117.72500050844016 422.3870591351321 117.71000000000001 422.5300000000001 L 117.80000000000001 421.86000000000007 C 117.77395323678886 422.0025683032249 117.73718211152458 422.1429671451431 117.69000000000001 422.2800000000001 L 117.94000000000001 421.68000000000006 C 117.88471288103551 421.81320687202725 117.81062692249145 421.93780598412405 117.72000000000001 422.05000000000007 L 118.11000000000001 421.55000000000007 C 118.00903570736548 421.66908908561214 117.89498400776132 421.7764318617102 117.77000000000001 421.87000000000006 L 118.28000000000002 421.4800000000001 C 118.14677421276402 421.56843591854636 118.00626778973744 421.6453799121086 117.86000000000001 421.7100000000001 L 118.46000000000001 421.4600000000001 C 118.27234198487676 421.52982064228104 118.07797894317102 421.58008694617047 117.88000000000001 421.61000000000007 L 118.55000000000001 421.5200000000001 C 118.31064929792791 421.54496649776786 118.06935070207211 421.54496649776786 117.83000000000001 421.5200000000001 L 118.50000000000001 421.61000000000007 C 118.24736592619652 421.57272774462876 117.99934090622048 421.5090456449052 117.76000000000002 421.4200000000001 L 118.35000000000002 421.6700000000001 C 118.08071387353516 421.5528004622821 117.82572215169644 421.4051736759544 117.59000000000002 421.2300000000001 L 118.10000000000002 421.62000000000006 C 117.86910617689729 421.4390704248974 117.66092957510267 421.2308938231028 117.48000000000002 421.00000000000006 L 117.87000000000002 421.51000000000005 C 117.72104568698145 421.3017655687576 117.59055051465516 421.0809275848208 117.48000000000002 420.85 L 117.73000000000002 421.44 C 117.61393327553073 421.17230747811504 117.53649260302605 420.88948067418494 117.50000000000001 420.6 L 117.59000000000002 421.27000000000004 C 117.5700132537843 421.08721139851804 117.5700132537843 420.9027886014821 117.59000000000002 420.72 L 117.50000000000001 421.38000000000005 C 117.51933794009226 421.27386505792583 117.54949528752762 421.1699897500929 117.59000000000002 421.07000000000005 L 117.33000000000001 421.6700000000001 C 117.35728167943215 421.6036616921848 117.39076347367026 421.54004628313237 117.43 421.4800000000001 L 117.04 421.99000000000007 C 117.07868838641996 421.9331085102133 117.12590864013235 421.8825153812357 117.18 421.8400000000001 L 116.68 422.2300000000001 C 116.73351808986848 422.1810403322049 116.79422257977808 422.1405706722651 116.86000000000001 422.11000000000007 L 116.27000000000001 422.37000000000006 C 116.37386420180071 422.3308052895749 116.48093204026884 422.3006924600058 116.59 422.2800000000001 L 115.93 422.37000000000006 C 116.26234722943558 422.33373975735026 116.59765277056444 422.33373975735026 116.93 422.37000000000006 L 116.27000000000001 422.2800000000001 C 116.41955648406582 422.2990198835818 116.56691394779139 422.3325102162467 116.71000000000001 422.3800000000001 L 116.11000000000001 422.1300000000001 C 116.2120761773634 422.17688806141297 116.30922329340031 422.23383637081395 116.40000000000002 422.3000000000001 L 115.89000000000001 421.91000000000014 L 116.05000000000001 422.07000000000016 L 115.66000000000001 421.57000000000016 C 115.71921049169089 421.65984996680135 115.77265150899899 421.7533717470905 115.82000000000001 421.85000000000014 L 115.57000000000001 421.2500000000001 C 115.59911921192244 421.35869273968564 115.62248500409896 421.4688457599464 115.64 421.5800000000001 L 115.55 420.9100000000001 C 115.56510780290915 421.0629611935909 115.56510780290915 421.2170388064093 115.55 421.37000000000006 L 115.64 420.71000000000004 C 115.5978509542918 420.9399309461381 115.53078901365292 421.16458844727833 115.44 421.38000000000005 L 115.69 420.78000000000003 C 115.5617526008113 421.06447670367675 115.40065713892005 421.33296914016216 115.21 421.58000000000004 L 115.6 421.08000000000004 C 115.4057110949683 421.3242905471208 115.1842905471208 421.54571109496834 114.94 421.74000000000007 L 115.45 421.3500000000001 C 115.20131176479651 421.5382162807244 114.93310294661723 421.69914157163197 114.65 421.8300000000001 L 115.24000000000001 421.5800000000001 C 114.95885826094633 421.699394382185 114.66283003075552 421.78012935405525 114.36000000000001 421.8200000000001 L 115.02000000000001 421.7400000000001 L 114.49000000000001 421.7400000000001 L 115.15 421.8300000000001 C 114.98327953409037 421.8053800609299 114.81923031037509 421.76520474083634 114.66000000000001 421.7100000000001 L 115.26 421.9600000000001 C 115.12478484211012 421.90253919560826 114.99715820358787 421.8286500890954 114.88000000000001 421.74000000000007 L 115.38000000000001 422.13000000000005 C 115.26938652856995 422.0378076092329 115.16576854840632 421.9375321445584 115.07000000000001 421.83000000000004 L 115.47000000000001 422.34000000000003 C 115.40396132223522 422.2526890199102 115.34699991384154 422.1588702296147 115.30000000000001 422.06000000000006 L 115.55000000000001 422.6600000000001 C 115.55000000000001 422.55000000000007 115.48000000000002 422.4600000000001 115.45000000000002 422.3500000000001 L 115.54000000000002 423.0200000000001 C 115.52002171541142 422.87736282687916 115.52002171541142 422.732637173121 115.54000000000002 422.5900000000001 L 115.45000000000002 423.2600000000001 C 115.46601911599171 423.1607068852045 115.49284513575735 423.063462563554 115.53000000000002 422.9700000000001 L 115.28000000000002 423.56000000000006 C 115.35095939398835 423.40460187528237 115.4381079353259 423.25711972840344 115.54000000000002 423.12000000000006 L 115.15000000000002 423.63000000000005 C 115.2949531303724 423.4616995499462 115.45568643078104 423.3076634703879 115.63000000000002 423.1700000000001 L 115.12000000000002 423.56000000000006 C 115.68800579266735 423.15498859936207 116.30235794505936 422.8192770406779 116.95000000000002 422.56000000000006 L 116.35000000000002 422.81000000000006 C 116.64357962701226 422.6899048148817 116.94842829268947 422.5994552107797 117.26000000000002 422.5400000000001 L 116.60000000000002 422.63000000000005 C 116.82263274787847 422.6049828790687 117.04736725212157 422.6049828790687 117.27000000000002 422.63000000000005 L 116.61000000000003 422.5400000000001 C 116.79462651675661 422.566538133525 116.97573593076237 422.613492426045 117.15000000000003 422.68000000000006 L 116.55000000000004 422.43000000000006 C 116.68521515788993 422.4874608043919 116.81284179641217 422.56134991090477 116.93000000000004 422.6500000000001 L 116.43000000000004 422.2600000000001 L 116.65000000000003 422.48000000000013 L 116.26000000000003 421.97000000000014 L 116.35000000000004 422.13000000000017 L 116.10000000000004 421.53000000000014 C 116.13047645975533 421.6139108232034 116.15062465927527 421.70121968778983 116.16000000000004 421.79000000000013 L 116.07000000000004 421.1200000000001 L 116.07000000000004 421.2100000000001 L 116.15000000000003 420.5400000000001 C 116.16050748632316 420.5928157992608 116.16050748632316 420.6471842007394 116.15000000000003 420.7000000000001 L 116.40000000000003 420.1000000000001 L 116.40000000000003 420.1600000000001 L 116.79000000000003 419.6600000000001 L 116.74000000000004 419.7100000000001 L 117.25000000000004 419.3200000000001 L 117.18000000000005 419.3200000000001 C 115.98706494036554 420.0158787847869 115.58412121521326 421.5470649403656 116.28000000000004 422.7400000000001 C 116.97587878478684 423.9329350596346 118.50706494036554 424.33587878478687 119.70000000000005 423.6400000000001 C 120.8064054711332 422.97833606404845 121.35035002640929 421.67124541629545 121.04000000000005 420.4200000000001 C 120.83071191276146 419.5388462358592 120.28521649808374 418.7744348981858 119.52000000000005 418.2900000000001 C 118.30477670420488 417.53484782032666 116.81560924727079 417.3624565137357 115.46000000000005 417.82000000000005 C 113.02000000000005 418.59000000000003 110.26000000000005 420.41 110.65000000000005 423.32000000000005 C 110.90897783756401 424.94754658081314 112.13964390336227 426.2496706762384 113.75000000000004 426.6 C 115.2096159635858 426.8900248953922 116.72429827782905 426.5682904658751 117.94000000000004 425.71000000000004 C 119.08656576768776 424.9154011283759 119.95140409191343 423.77745596492105 120.41000000000004 422.46000000000004 C 121.03426304360814 420.7709347481626 120.40769498124025 418.8746327315922 118.90000000000003 417.89000000000004 C 117.68571576505956 417.25448476456626 116.26935023717533 417.12507065541945 114.96000000000004 417.53000000000003 C 113.8851585829575 417.8790081753259 113.05584906568497 418.74209047836973 112.75000000000004 419.83000000000004 C 112.56512984311689 420.588903579576 112.56512984311689 421.38109642042406 112.75000000000004 422.14000000000004 C 113.36018722890356 424.67867771148656 115.6094289687227 426.48382784636885 118.22000000000004 426.53000000000003 C 119.82528995340596 426.56250817329743 121.33518014460671 425.76981582291705 122.22000000000004 424.43 C 123.11521725556355 422.9432567859279 122.94960888762597 421.04885862586156 121.81000000000004 419.74 C 120.735013208468 418.6346902123937 119.12044968927214 418.24563876198505 117.66000000000004 418.74 C 116.33959981193395 419.20332518589646 115.25937092284323 420.1755311860781 114.66000000000004 421.44 C 113.48000000000003 423.79 113.40000000000003 426.89 115.32000000000004 428.9 C 116.35685089938406 430.00688174691885 117.89441357163462 430.4954176698753 119.38000000000004 430.19 C 121.03452435628164 429.7135754699711 122.16777819398155 428.19166056880005 122.15000000000003 426.46999999999997 C 122.17723352943328 425.264681495459 121.90220174300936 424.07173112184523 121.35000000000004 422.99999999999994 C 120.72770482254349 421.7788799632548 119.60240543580416 420.89106258995065 118.27000000000004 420.56999999999994 C 117.21431847800066 420.4137416114155 116.14630959218924 420.3568257773754 115.08000000000004 420.3999999999999 C 114.41237052412372 420.3231160127697 113.73663042739516 420.3569030176061 113.08000000000004 420.49999999999994 C 112.00169257976349 420.831373615803 111.15615218506896 421.6731726813174 110.82000000000004 422.74999999999994 C 109.82000000000004 425.74999999999994 112.91000000000004 428.10999999999996 115.40000000000003 428.9599999999999 C 117.89000000000003 429.8099999999999 120.84000000000003 428.9599999999999 121.99000000000004 426.5799999999999 C 122.6399220530036 425.2450186277442 122.61017018193809 423.67932641292185 121.91000000000004 422.36999999999995 C 121.18181278151992 421.03511538812245 119.7702355187309 420.2174804708785 118.25000000000004 420.24999999999994 C 115.62000000000005 420.3399999999999 112.57000000000005 422.69999999999993 112.76000000000005 425.5199999999999 C 112.78891486362035 427.43986188698733 114.26694283871443 429.025932842717 116.18000000000005 429.18999999999994 C 117.33906559193846 429.2013752103524 118.41073374056639 428.57527518086727 118.97000000000006 427.55999999999995 C 119.33069975025366 426.9113964126755 119.54248877250723 426.190630546619 119.59000000000006 425.44999999999993 C 119.76366402470204 423.2295487858477 118.63716220803781 421.1090747780092 116.70000000000006 420.00999999999993 C 115.52477321008084 419.3382632503505 114.1240171303321 419.18262368593395 112.83000000000006 419.5799999999999 C 111.93919554314473 419.87783468817736 111.18161245601937 420.47965302841715 110.69000000000005 421.2799999999999 C 110.21583935281888 422.0992300131118 110.07274185618697 423.0687155527929 110.29000000000005 423.9899999999999 C 110.79723293817275 425.678508746708 112.41217657871024 426.7856608301693 114.17000000000004 426.6499999999999 C 115.29000000000005 426.6499999999999 116.41000000000004 426.6499999999999 117.53000000000004 426.5399999999999 C 118.65000000000005 426.4299999999999 119.68000000000005 426.3799999999999 120.75000000000004 426.25999999999993 C 121.40858704938475 426.2374273581609 122.03697895426905 425.9782600753555 122.52000000000004 425.5299999999999 C 122.98671864072254 425.05901538439286 123.24900431617296 424.42306244528703 123.25000000000004 423.75999999999993 C 123.25229066905169 423.0962881266817 122.98950732788569 422.4591285186491 122.52000000000004 421.98999999999995 C 122.05611905338057 421.51268836177366 121.41549162439718 421.24847478936806 120.75000000000004 421.25999999999993 Z" transform="translate(-116.72, -423.79)" style="stroke: none; stroke-width: 1; stroke-dasharray: none; stroke-linecap: butt; stroke-dashoffset: 0; stroke-linejoin: miter; stroke-miterlimit: 4; fill: rgb(255,255,255); fill-rule: nonzero; opacity: 1;"/>
</g>
		<g transform="matrix(1 0 0 1 -123.06 -9.48)">
<path stroke-linecap="round" d="M 143.68 419.33 C 143.56 419.71 143.78 419.09 143.79000000000002 419.08 C 143.65000000000003 419.4 143.91000000000003 418.9 143.97000000000003 418.87 C 144.03000000000003 418.84000000000003 143.80000000000004 419.04 143.80000000000004 419.04 C 143.80000000000004 419.04 144.33000000000004 418.72 144.00000000000003 418.88 C 143.91844809605558 418.90984360804663 143.8411309876083 418.95018296897564 143.77000000000004 419 C 143.77000000000004 419 144.38000000000005 418.79 144.01000000000005 418.9 C 143.83000000000004 418.95 143.67000000000004 419.01 143.49000000000004 419.04999999999995 C 143.40162359532385 419.05603985728885 143.3143129847922 419.0728303593142 143.23000000000005 419.09999999999997 C 143.74000000000004 418.90999999999997 143.73000000000005 419.04999999999995 143.50000000000006 419.09999999999997 C 143.33014697397792 419.10999711483043 143.1598530260222 419.10999711483043 142.99000000000007 419.09999999999997 C 142.9069947557417 419.110457677801 142.82300524425844 419.110457677801 142.74000000000007 419.09999999999997 C 142.74000000000007 419.09999999999997 143.42000000000007 419.23999999999995 143.01000000000008 419.09999999999997 C 142.89000000000007 419.09999999999997 142.2800000000001 418.85999999999996 142.72000000000008 419.03999999999996 C 143.16000000000008 419.21999999999997 142.8400000000001 419.09 142.72000000000008 419.03999999999996 C 142.60000000000008 418.98999999999995 143.04000000000008 419.28999999999996 142.9900000000001 419.26 C 142.72000000000008 419.03 143.1500000000001 419.49 143.16000000000008 419.51 C 142.9600000000001 419.21 143.26000000000008 419.77 143.2700000000001 419.78999999999996 C 143.1400000000001 419.46999999999997 143.2700000000001 419.99999999999994 143.2700000000001 420.04999999999995 C 143.2700000000001 420.53999999999996 143.2000000000001 420.52 143.2700000000001 420.28999999999996 C 143.2700000000001 420.34 143.00000000000009 420.83 143.2100000000001 420.48999999999995 C 143.0900000000001 420.67999999999995 142.9000000000001 420.84999999999997 143.2100000000001 420.5799999999999 C 143.2900000000001 420.49999999999994 143.4600000000001 420.24999999999994 143.2100000000001 420.5299999999999 C 142.9600000000001 420.8099999999999 143.1400000000001 420.5899999999999 143.2800000000001 420.5299999999999 L 143.5600000000001 420.3699999999999 C 143.7800000000001 420.2299999999999 143.35000000000008 420.45999999999987 143.3300000000001 420.45999999999987 C 143.5400000000001 420.45999999999987 143.7400000000001 420.3099999999999 143.9500000000001 420.2599999999999 L 144.2600000000001 420.1899999999999 C 144.78000000000011 420.0599999999999 143.8600000000001 420.1899999999999 144.1600000000001 420.1899999999999 C 144.46000000000012 420.1899999999999 144.59000000000012 420.1899999999999 144.81000000000012 420.1899999999999 C 145.03000000000011 420.1899999999999 145.27000000000012 420.2499999999999 144.8800000000001 420.1899999999999 C 144.4900000000001 420.1299999999999 144.8800000000001 420.1899999999999 144.9400000000001 420.1899999999999 C 145.12624015096983 420.2327795509782 145.30987473704465 420.28620052147267 145.49000000000012 420.3499999999999 C 145.87000000000012 420.4599999999999 145.34000000000012 420.2899999999999 145.30000000000013 420.25999999999993 C 145.26000000000013 420.22999999999996 145.57000000000014 420.38999999999993 145.68000000000012 420.44999999999993 L 146.11000000000013 420.7299999999999 C 146.38000000000014 420.8999999999999 145.72000000000014 420.38999999999993 145.95000000000013 420.6099999999999 L 146.17000000000013 420.7999999999999 C 146.31000000000012 420.9399999999999 146.43000000000012 421.07999999999987 146.56000000000012 421.2299999999999 C 146.6900000000001 421.37999999999994 146.27000000000012 420.7999999999999 146.4400000000001 421.0699999999999 C 146.5000000000001 421.1799999999999 146.5700000000001 421.26999999999987 146.6300000000001 421.3799999999999 L 146.7700000000001 421.6299999999999 C 146.9200000000001 421.89999999999986 146.66000000000008 421.6799999999999 146.7000000000001 421.4299999999999 C 146.7000000000001 421.5699999999999 146.8400000000001 421.8399999999999 146.8800000000001 421.9899999999999 C 146.92000000000013 422.1399999999999 146.93000000000012 422.2199999999999 146.96000000000012 422.32999999999987 C 147.04000000000013 422.65999999999985 146.96000000000012 421.84999999999985 146.96000000000012 422.1899999999999 C 146.96000000000012 422.2999999999999 146.96000000000012 422.4199999999999 146.96000000000012 422.5399999999999 C 146.96000000000012 423.0399999999999 146.8800000000001 422.5399999999999 146.96000000000012 422.4799999999999 C 147.04000000000013 422.4199999999999 146.89000000000013 422.7599999999999 146.8800000000001 422.8099999999999 C 146.8200000000001 423.1399999999999 146.7000000000001 422.8099999999999 146.9700000000001 422.64999999999986 C 146.84328570478732 422.8028037483905 146.74199041814305 422.9750057356858 146.6700000000001 423.15999999999985 C 146.6700000000001 423.09999999999985 147.0600000000001 422.72999999999985 146.78000000000011 422.99999999999983 L 146.62000000000012 423.1499999999998 C 146.4100000000001 423.3799999999998 147.05000000000013 422.8799999999998 146.78000000000011 423.0299999999998 C 146.7200000000001 423.0299999999998 146.49000000000012 423.1499999999998 146.46000000000012 423.2099999999998 C 146.61000000000013 422.9499999999998 146.95000000000013 423.0699999999998 146.65000000000012 423.11999999999983 C 146.1900000000001 423.1899999999998 146.7900000000001 423.11999999999983 146.83000000000013 423.11999999999983 C 146.7202149378594 423.11027515254165 146.60978506214084 423.11027515254165 146.5000000000001 423.11999999999983 C 146.1400000000001 423.11999999999983 146.6000000000001 422.9599999999998 146.68000000000012 423.16999999999985 C 146.4734828271787 423.10113609916954 146.26312580356077 423.04437309279643 146.05000000000013 422.99999999999983 C 145.80000000000013 422.92999999999984 145.92000000000013 422.8299999999998 146.17000000000013 423.0699999999998 C 146.07751527808023 423.00620221543187 145.97652906080643 422.955709106795 145.87000000000012 422.91999999999985 C 145.45960782492656 422.7053873107665 145.06524895625986 422.4614195360829 144.6900000000001 422.1899999999998 L 144.4200000000001 421.98999999999984 C 144.4200000000001 421.98999999999984 144.9000000000001 422.40999999999985 144.5700000000001 422.09999999999985 L 144.0700000000001 421.60999999999984 C 143.84000000000012 421.3799999999998 144.3200000000001 422.02999999999986 144.18000000000012 421.74999999999983 C 144.18000000000012 421.6499999999998 144.0000000000001 421.35999999999984 144.18000000000012 421.74999999999983 C 144.36000000000013 422.1399999999998 144.23000000000013 421.86999999999983 144.18000000000012 421.74999999999983 C 144.31000000000012 422.35999999999984 144.18000000000012 422.2099999999998 144.23000000000013 422.0099999999998 C 144.22995219577015 422.2700136623296 144.1609390378192 422.5253623467482 144.03000000000014 422.74999999999983 C 144.21000000000015 422.41999999999985 143.87000000000015 422.9499999999998 143.85000000000014 422.96999999999986 C 144.07000000000014 422.6899999999999 143.65000000000015 423.11999999999983 143.63000000000014 423.1399999999999 C 143.93000000000015 422.89999999999986 143.16000000000014 423.26999999999987 143.42000000000013 423.20999999999987 C 143.52000000000012 423.20999999999987 144.15000000000012 423.0699999999999 143.66000000000014 423.1299999999999 C 143.17000000000016 423.1899999999999 143.82000000000014 423.1299999999999 143.92000000000013 423.1299999999999 L 144.38000000000014 423.1299999999999 C 144.47974187011096 423.1401612969481 144.58025812988933 423.1401612969481 144.68000000000015 423.1299999999999 L 144.38000000000014 423.1299999999999 L 144.59000000000015 423.1799999999999 C 144.48000000000013 423.1799999999999 144.20000000000016 422.9899999999999 144.12000000000015 422.9199999999999 C 144.04000000000013 422.8499999999999 143.68000000000015 422.3499999999999 143.82000000000014 422.5999999999999 C 143.96000000000012 422.8499999999999 143.71000000000012 422.1099999999999 143.74000000000012 422.4299999999999 C 143.74000000000012 422.5299999999999 143.74000000000012 422.8699999999999 143.74000000000012 422.4299999999999 C 143.74000000000012 421.9899999999999 143.74000000000012 422.4299999999999 143.74000000000012 422.51999999999987 C 143.74000000000012 422.60999999999984 143.74000000000012 422.76999999999987 143.74000000000012 422.8899999999999 C 143.75487395618467 423.16313098463877 143.75487395618467 423.43686901536097 143.74000000000012 423.70999999999987 C 143.73131393860515 423.8298428173695 143.73131393860515 423.9501571826302 143.74000000000012 424.0699999999999 C 143.74000000000012 424.0699999999999 143.85000000000014 423.45999999999987 143.74000000000012 423.9499999999999 C 143.74000000000012 424.15999999999985 143.6600000000001 424.3599999999999 143.61000000000013 424.5699999999999 C 143.5606017800917 424.7795982654081 143.5005234151425 424.98653485578865 143.43000000000012 425.1899999999999 L 143.43000000000012 425.26999999999987 C 143.3500000000001 425.45999999999987 143.3500000000001 425.45999999999987 143.43000000000012 425.26999999999987 C 143.51000000000013 425.07999999999987 143.52000000000012 425.0599999999999 143.43000000000012 425.26999999999987 L 143.36000000000013 425.39999999999986 C 143.2964037672548 425.4819327188708 143.2395510688182 425.56888390471494 143.19000000000014 425.65999999999985 C 143.19000000000014 425.65999999999985 143.53000000000014 425.15999999999985 143.27000000000015 425.5099999999999 C 143.01000000000016 425.8599999999999 143.19000000000014 425.2999999999999 143.43000000000015 425.39999999999986 L 143.18000000000015 425.54999999999984 C 143.18000000000015 425.54999999999984 143.68000000000015 425.33999999999986 143.43000000000015 425.41999999999985 C 143.18000000000015 425.49999999999983 143.98000000000016 425.41999999999985 143.66000000000014 425.41999999999985 C 143.52000000000015 425.41999999999985 143.28000000000014 425.33999999999986 143.66000000000014 425.41999999999985 C 143.8442730674511 425.4177480129407 144.02393273827485 425.47763456988196 144.17000000000013 425.58999999999986 L 144.04000000000013 425.5099999999999 C 144.60000000000014 425.9299999999999 144.11000000000013 425.5599999999999 143.97000000000014 425.40999999999985 C 143.82516696309648 425.2571597090647 143.68831829438656 425.09694663350183 143.56000000000014 424.92999999999984 C 143.44000000000014 424.77999999999986 143.28000000000014 424.73999999999984 143.64000000000016 425.03999999999985 C 143.56463128710297 424.9567839427472 143.4976413067226 424.8663474692338 143.44000000000017 424.76999999999987 C 143.31072578314115 424.58946078169646 143.19057526380402 424.4025599738387 143.08000000000015 424.20999999999987 C 143.0204627365087 424.1134344423667 142.96702503256012 424.0132387474631 142.92000000000016 423.90999999999985 C 143.05000000000015 424.22999999999985 143.08000000000015 424.29999999999984 143.02000000000015 424.1299999999999 C 142.98885341591637 424.05156365020724 142.9621445426087 423.9714370302842 142.94000000000014 423.8899999999999 C 142.92729744678357 423.7943261065899 142.90381487347258 423.70039581334595 142.87000000000015 423.6099999999999 C 142.87000000000015 423.6999999999999 142.87000000000015 424.1999999999999 142.87000000000015 423.8499999999999 C 142.8800031989794 423.75693469521076 142.8800031989794 423.6630653047891 142.87000000000015 423.56999999999994 C 142.80000000000015 423.9699999999999 142.79000000000013 424.0799999999999 142.87000000000015 423.87999999999994 C 142.880749388977 423.81199199680935 142.8974809887724 423.74506559762784 142.92000000000016 423.67999999999995 C 142.98000000000016 423.41999999999996 143.09000000000015 423.60999999999996 142.82000000000016 423.88999999999993 C 142.8776074044051 423.8169044976832 142.92472880326056 423.7361249567881 142.96000000000015 423.6499999999999 C 142.80000000000015 424.0199999999999 142.66000000000014 424.0199999999999 142.85000000000014 423.8499999999999 C 142.51000000000013 424.0899999999999 142.42000000000013 424.1599999999999 142.59000000000015 424.0599999999999 C 142.76000000000016 423.95999999999987 142.65000000000015 424.0099999999999 142.26000000000013 424.1799999999999 C 142.26000000000013 424.1799999999999 142.48000000000013 424.0899999999999 142.49000000000012 424.1199999999999 C 142.5000000000001 424.14999999999986 141.76000000000013 424.1799999999999 142.2500000000001 424.1199999999999 C 142.31323543158052 424.1249801382918 142.3767645684197 424.1249801382918 142.4400000000001 424.1199999999999 C 142.0000000000001 424.0499999999999 141.8800000000001 424.0399999999999 142.0700000000001 424.1199999999999 L 142.2500000000001 424.1699999999999 C 142.2500000000001 424.1699999999999 141.6400000000001 423.8599999999999 141.99000000000012 424.0699999999999 C 142.34000000000015 424.27999999999986 141.62000000000012 423.71999999999986 141.83000000000013 423.9299999999999 C 141.86837863896008 423.97505474543493 141.91202381294025 424.01534259833977 141.96000000000012 424.0499999999999 C 141.7200000000001 423.7199999999999 141.65000000000012 423.6299999999999 141.7500000000001 423.7899999999999 C 141.788853754814 423.84323301027933 141.8223499644341 423.9001765666335 141.8500000000001 423.9599999999999 C 141.8000000000001 423.9099999999999 141.6600000000001 423.3599999999999 141.7200000000001 423.7199999999999 C 141.7200000000001 423.5799999999999 141.7200000000001 423.06999999999994 141.7200000000001 423.4899999999999 C 141.7200000000001 423.5999999999999 141.7200000000001 423.8999999999999 141.7200000000001 423.4899999999999 C 141.7200000000001 423.07999999999987 141.7200000000001 423.4899999999999 141.7200000000001 423.4899999999999 C 141.7200000000001 423.4899999999999 142.03000000000011 422.9399999999999 141.8200000000001 423.2499999999999 C 141.8200000000001 423.32999999999987 141.5500000000001 423.6699999999999 141.8200000000001 423.3099999999999 C 142.09000000000012 422.9499999999999 141.8900000000001 423.2199999999999 141.8200000000001 423.3099999999999 C 141.7500000000001 423.39999999999986 142.3500000000001 422.9099999999999 141.9700000000001 423.1799999999999 C 141.83000000000013 423.2799999999999 141.5000000000001 423.3199999999999 142.2200000000001 423.07999999999987 C 141.83000000000013 423.20999999999987 142.7600000000001 423.07999999999987 142.46000000000012 423.07999999999987 C 142.34000000000012 423.07999999999987 142.06000000000012 423.07999999999987 142.46000000000012 423.07999999999987 C 142.86000000000013 423.07999999999987 142.46000000000012 423.07999999999987 142.46000000000012 423.07999999999987 C 142.46000000000012 423.07999999999987 143.08000000000013 423.3899999999999 142.74000000000012 423.1799999999999 C 143.09055412732735 423.3975882647279 143.35001245804833 423.735239517036 143.4700000000001 424.1299999999999 C 143.27362210997973 423.5110332498791 142.86675851502397 422.98034160428466 142.3200000000001 422.6299999999999 C 141.73501401619836 422.2947986927256 141.04108568637997 422.2049116033709 140.3900000000001 422.3799999999999 C 139.2300000000001 422.7499999999999 138.1100000000001 424.15999999999985 138.6500000000001 425.4499999999999 C 138.827023077091 426.0119430247076 139.13162883143931 426.52532350956426 139.54000000000008 426.9499999999999 C 139.95777143253625 427.36185914486634 140.46392452703128 427.67307489891397 141.02000000000007 427.8599999999999 C 141.87947474102333 428.1503452419027 142.8105252589768 428.1503452419027 143.67000000000007 427.8599999999999 C 145.50646836331785 427.21572336735034 146.7474321720884 425.4959310793114 146.7800000000001 423.5499999999999 C 146.76445098523592 421.6345208760735 145.5059930995594 419.95135433470966 143.67313894143095 419.39462488417814 C 141.84028478330248 418.8378954336466 139.85828134946033 419.5367718492067 138.7800000000001 421.1199999999999 C 137.84566587416077 422.7666977035722 137.84566587416077 424.78330229642756 138.7800000000001 426.4299999999999 C 139.1764170385501 427.1456158714356 139.64917368196288 427.8161926706026 140.19000000000008 428.4299999999999 C 140.6594762177063 429.0505053308689 141.2605305413283 429.55935245711703 141.95000000000007 429.9199999999999 C 144.03977841855377 430.84808446404435 146.49390549930882 430.0926401278815 147.70000000000007 428.1499999999999 C 148.5695298060063 426.69075556148056 149.0161657542112 425.01846747634136 148.99000000000007 423.31999999999994 C 149.03445816153163 422.47629269333305 148.93641877659886 421.6311255818437 148.70000000000007 420.81999999999994 C 148.3083138328148 419.552351184805 147.27911193745132 418.58391397699063 145.99000000000007 418.2699999999999 C 144.41966718920995 417.8682987526331 142.75695105319951 418.04949217771116 141.31000000000006 418.7799999999999 C 140.40722158627668 419.3384278027837 139.77108064466302 420.24072534787945 139.5484010381259 421.27863876817963 C 139.32572143158873 422.3165521884798 139.53574591460418 423.4003906792233 140.13000000000005 424.2799999999999 C 141.0834074316439 425.6110230983343 142.3743958538867 426.66383451219536 143.87000000000006 427.3299999999999 C 145.6108943486113 428.28528978123313 147.71910565138882 428.28528978123313 149.46000000000006 427.3299999999999 C 151.0887632451213 426.2799147427337 152.09799889911838 424.4969317540056 152.16000000000005 422.55999999999995 C 152.19363072003125 419.1503079702774 149.88692110565316 416.1615068032607 146.58000000000004 415.3299999999999 C 144.65609601511952 414.8587104990447 142.6241071872633 415.16027774558165 140.92000000000004 416.1699999999999 C 138.97000000000006 417.38999999999993 137.68000000000004 419.9399999999999 139.11000000000004 422.0599999999999 C 140.32423850803684 423.622228572454 142.32486928713206 424.3525559248227 144.26000000000005 423.9399999999999 C 146.26304001113823 423.81856598872616 147.99942047181477 422.5113589298948 148.67000000000004 420.6199999999999 C 149.03726935863753 419.2889937529077 148.25600624709224 417.9122693586374 146.92500000000004 417.5449999999999 C 145.59399375290783 417.1777306413624 144.21726935863754 417.9589937529077 143.85000000000005 419.2899999999999 Z" transform="translate(-145.12, -422.71)" style="stroke: none; stroke-width: 1; stroke-dasharray: none; stroke-linecap: butt; stroke-dashoffset: 0; stroke-linejoin: miter; stroke-miterlimit: 4; fill: rgb(255,255,255); fill-rule: nonzero; opacity: 1;"/>
</g>
		<g transform="matrix(1 0 0 1 -136.9 21.39)">
<path stroke-linecap="round" d="M 114.83 436.14 C 113.72022559557571 442.21246178612097 113.96953213100944 448.455370646023 115.56 454.41999999999996 C 117.09 460.10999999999996 119.91 466.34999999999997 124.25 470.41999999999996 C 128.4614604951219 474.32283813426653 134.6661152176159 475.17038117625674 139.77 472.53999999999996 C 145.26000000000002 469.76 147.06 463.61999999999995 147.71 457.95 C 148.73146529994978 450.3085137696645 148.6168918076262 442.5579539948322 147.37 434.95 C 146.9910897754095 433.630242468036 145.62866514197415 432.85361604832525 144.3 433.2 C 142.98583097129855 433.5921747526758 142.21415808639566 434.95031903010494 142.55 436.28 C 143.64000000000001 442.17999999999995 143.44 448.22999999999996 143.03 454.19 C 142.73 458.53 142.47 463.88 139.03 467.01 C 136.01489376908617 469.57624242724694 131.63128347224307 469.73353911400807 128.44 467.39 C 126.50847716869761 465.6756003894852 124.92617855905841 463.60435113652403 123.78 461.28999999999996 C 122.53758807468279 459.11718036442943 121.53183474886157 456.8173577593849 120.78 454.42999999999995 C 119.05514364368966 448.9343137372844 118.66435599597735 443.10677863982016 119.64 437.42999999999995 C 119.97059340519938 436.1065188561115 119.20531606825364 434.75628815241987 117.9 434.35999999999996 C 116.57034395807425 434.00085751263157 115.19865986950462 434.77576995227804 114.82000000000001 436.09999999999997 Z" transform="translate(-131.27, -453.59)" style="stroke: none; stroke-width: 1; stroke-dasharray: none; stroke-linecap: butt; stroke-dashoffset: 0; stroke-linejoin: miter; stroke-miterlimit: 4; fill: rgb(255,255,255); fill-rule: nonzero; opacity: 1;"/>
</g>
		<g transform="matrix(1 0 0 1 -160.81 -19.87)">
<path stroke-linecap="round" d="M 113.17 420.23 Q 108.17 411.84000000000003 103.71000000000001 403.17 C 102.97000000000001 401.74 100.82000000000001 403 101.55000000000001 404.43 Q 106.02000000000001 413.12 111.01000000000002 421.49 C 111.35793939239342 422.08646752981724 112.12353247018275 422.2879393923934 112.72000000000001 421.94 C 113.31646752981727 421.59206060760664 113.51793939239342 420.82646752981725 113.17000000000002 420.23 Z" transform="translate(-107.37, -412.33)" style="stroke: none; stroke-width: 1; stroke-dasharray: none; stroke-linecap: butt; stroke-dashoffset: 0; stroke-linejoin: miter; stroke-miterlimit: 4; fill: rgb(255,255,255); fill-rule: nonzero; opacity: 1;"/>
</g>
		<g transform="matrix(1 0 0 1 -152.71 -26.16)">
<path stroke-linecap="round" d="M 118.59 420.53 Q 117.34 405.79999999999995 114.78 391.23999999999995 C 114.5 389.65999999999997 112.09 390.3299999999999 112.37 391.9 Q 114.86 406.14 116.09 420.53 C 116.23 422.11999999999995 118.73 422.14 118.59 420.53 Z" transform="translate(-115.47, -406.03)" style="stroke: none; stroke-width: 1; stroke-dasharray: none; stroke-linecap: butt; stroke-dashoffset: 0; stroke-linejoin: miter; stroke-miterlimit: 4; fill: rgb(255,255,255); fill-rule: nonzero; opacity: 1;"/>
</g>
		<g transform="matrix(1 0 0 1 -146.97 -15.56)">
<path stroke-linecap="round" d="M 119.91 422.7 L 124.67 411.84 C 124.99568068948675 411.2406717135467 124.7985002230406 410.49138594105136 124.22 410.13 C 123.62536285649755 409.78597400810787 122.86473791825198 409.9816903664869 122.51 410.57 L 117.75 421.44 C 117.42431931051325 422.03932828645327 117.6214997769594 422.7886140589486 118.2 423.15 C 118.79722691976903 423.4922833477869 119.55861552082156 423.2919179264573 119.91 422.7 Z" transform="translate(-121.21, -416.64)" style="stroke: none; stroke-width: 1; stroke-dasharray: none; stroke-linecap: butt; stroke-dashoffset: 0; stroke-linejoin: miter; stroke-miterlimit: 4; fill: rgb(255,255,255); fill-rule: nonzero; opacity: 1;"/>
</g>
		<g transform="matrix(1 0 0 1 -130.73 -21)">
<path stroke-linecap="round" d="M 141.63 421.62 C 140.41133663989248 414.2481566833746 138.4410621747778 407.02046617104065 135.74999999999997 400.0499999999999 C 135.18 398.56 132.75 399.21000000000004 133.34 400.71000000000004 C 136.0285375883892 407.6812949458865 137.99874071545543 414.9087237640529 139.22 422.28 C 139.48 423.86 141.89 423.19000000000005 141.63 421.62 Z" transform="translate(-137.45, -411.19)" style="stroke: none; stroke-width: 1; stroke-dasharray: none; stroke-linecap: butt; stroke-dashoffset: 0; stroke-linejoin: miter; stroke-miterlimit: 4; fill: rgb(255,255,255); fill-rule: nonzero; opacity: 1;"/>
</g>
		<g transform="matrix(1 0 0 1 -123.51 -18.14)">
<path stroke-linecap="round" d="M 146.82 423.9 C 145.79422575374224 417.2779322268683 145.18303604860063 410.5982633182172 144.98999999999995 403.9 C 144.93999999999997 402.28999999999996 142.43999999999997 402.28999999999996 142.48999999999998 403.9 C 142.69440073890172 410.80695257077406 143.33568221601854 417.6940484343933 144.40999999999997 424.5199999999999 C 144.65999999999997 426.10999999999996 147.06999999999996 425.43 146.81999999999996 423.85999999999996 Z" transform="translate(-144.66, -414.06)" style="stroke: none; stroke-width: 1; stroke-dasharray: none; stroke-linecap: butt; stroke-dashoffset: 0; stroke-linejoin: miter; stroke-miterlimit: 4; fill: rgb(255,255,255); fill-rule: nonzero; opacity: 1;"/>
</g>
		<g transform="matrix(1 0 0 1 -115.8 -20.84)">
<path stroke-linecap="round" d="M 149.54 423.31 Q 153.4 411.61 157.62 400.06 C 158.17000000000002 398.55 155.76 397.89 155.21 399.4 Q 151 411 147.13 422.64 C 146.62 424.16999999999996 149.03 424.83 149.54 423.31 Z" transform="translate(-152.38, -411.36)" style="stroke: none; stroke-width: 1; stroke-dasharray: none; stroke-linecap: butt; stroke-dashoffset: 0; stroke-linejoin: miter; stroke-miterlimit: 4; fill: rgb(255,255,255); fill-rule: nonzero; opacity: 1;"/>
</g>
</g>
</g>
</svg>