<svg width="358" height="336" viewBox="0 0 358 336" fill="none" xmlns="http://www.w3.org/2000/svg">
    <path d="M0 60C0 26.8629 26.8629 0 60 0H298C331.137 0 358 26.8629 358 60V276C358 309.137 331.137 336 298 336H223.031C189.894 336 163.031 309.137 163.031 276V252V228C163.031 194.863 136.168 168 103.031 168H60C26.8629 168 0 141.137 0 108V60Z" fill="#FE9E48"/>
    <path d="M256 82C274.443 82 291.107 83.8976 303.13 86.9482C309.149 88.4755 313.95 90.278 317.221 92.2402C320.554 94.2402 322 96.2174 322 98C322 99.7826 320.554 101.76 317.221 103.76C313.95 105.722 309.149 107.524 303.13 109.052C291.107 112.102 274.443 114 256 114C237.557 114 220.893 112.102 208.87 109.052C202.851 107.524 198.05 105.722 194.779 103.76C191.446 101.76 190 99.7826 190 98C190 96.2174 191.446 94.2402 194.779 92.2402C198.05 90.278 202.851 88.4755 208.87 86.9482C220.893 83.8976 237.557 82 256 82Z" stroke="white" stroke-width="2"/>
    <path d="M248.869 83.4198C265.175 74.0336 280.743 67.2281 292.716 63.8031C298.709 62.0885 303.748 61.2376 307.505 61.3061C311.344 61.3762 313.476 62.3922 314.248 63.9446C315.02 65.4973 314.623 67.9702 312.546 71.4451C310.514 74.8463 307.06 78.8837 302.409 83.2968C293.116 92.1123 279.215 102.27 262.909 111.656C246.603 121.042 231.036 127.847 219.063 131.272C213.07 132.987 208.031 133.838 204.273 133.77C200.434 133.7 198.302 132.683 197.53 131.13C196.758 129.578 197.156 127.105 199.232 123.631C201.264 120.23 204.719 116.192 209.37 111.779C218.663 102.963 232.563 92.806 248.869 83.4198Z" stroke="white" stroke-width="2"/>
    <circle cx="251" cy="82" r="3" fill="white"/>
    <circle cx="259" cy="114" r="3" fill="white"/>
</svg>